
<?xml version="1.0" standalone="no"?><!DOCTYPE svg PUBLIC "-//W3C//DTD SVG 1.1//EN" "http://www.w3.org/Graphics/SVG/1.1/DTD/svg11.dtd"><svg t="1497165495924" class="icon" style="" viewBox="0 0 1026 1024" version="1.1" xmlns="http://www.w3.org/2000/svg" p-id="1377" xmlns:xlink="http://www.w3.org/1999/xlink" width="200.390625" height="200"><defs><style type="text/css"></style></defs><path d="M682.666667 177.493333l92.16 194.56c3.413333 6.826667 10.24 13.653333 20.48 13.653333l208.213333 30.72c20.48 3.413333 30.72 30.72 13.653333 44.373333l-150.186667 153.6c-6.826667 6.826667-10.24 13.653333-6.826667 23.893333l34.133333 215.04c3.413333 20.48-17.066667 37.546667-37.546667 27.306667l-184.32-102.4c-6.826667-3.413333-17.066667-3.413333-23.893333 0l-184.32 102.4c-20.48 10.24-40.96-6.826667-37.546667-27.306667l34.133333-215.04c0-6.826667 0-17.066667-6.826667-23.893333l-150.186667-153.6c-13.653333-17.066667-6.826667-40.96 13.653333-44.373333l208.213333-30.72c10.24 0 13.653333-6.826667 20.48-13.653333l92.16-194.56C645.12 160.426667 672.426667 160.426667 682.666667 177.493333L682.666667 177.493333 682.666667 177.493333zM682.666667 177.493333" p-id="1378"></path><path d="M389.12 884.053333 119.466667 884.053333c-6.826667 0-13.653333-6.826667-13.653333-13.653333l0-30.72c0-6.826667 6.826667-13.653333 13.653333-13.653333l269.653333 0c6.826667 0 13.653333 6.826667 13.653333 13.653333l0 30.72C402.773333 877.226667 395.946667 884.053333 389.12 884.053333z" p-id="1379"></path><path d="M481.28 300.373333 146.773333 300.373333C139.946667 300.373333 136.533333 293.546667 136.533333 286.72L136.533333 256c0-6.826667 6.826667-13.653333 13.653333-13.653333l331.093333 0c6.826667 0 13.653333 6.826667 13.653333 13.653333l0 30.72C491.52 293.546667 488.106667 300.373333 481.28 300.373333z" p-id="1380"></path><path d="M576.853333 191.146667 245.76 191.146667C238.933333 191.146667 232.106667 187.733333 232.106667 180.906667L232.106667 150.186667C232.106667 143.36 238.933333 136.533333 245.76 136.533333l331.093333 0c6.826667 0 13.653333 6.826667 13.653333 13.653333l0 30.72C587.093333 187.733333 583.68 191.146667 576.853333 191.146667z" p-id="1381"></path><path d="M375.466667 733.866667 44.373333 733.866667c-6.826667 0-13.653333-6.826667-13.653333-13.653333l0-30.72c0-6.826667 6.826667-13.653333 13.653333-13.653333L375.466667 675.84c6.826667 0 13.653333 6.826667 13.653333 13.653333l0 30.72C385.706667 727.04 382.293333 733.866667 375.466667 733.866667z" p-id="1382"></path><path d="M327.68 409.6 51.2 409.6c-6.826667 0-13.653333-6.826667-13.653333-13.653333l0-30.72c0-6.826667 6.826667-13.653333 13.653333-13.653333l279.893333 0c6.826667 0 13.653333 6.826667 13.653333 13.653333l0 30.72C341.333333 402.773333 334.506667 409.6 327.68 409.6z" p-id="1383"></path><path d="M290.133333 587.093333 13.653333 587.093333C6.826667 587.093333 0 580.266667 0 573.44l0-30.72c0-6.826667 6.826667-13.653333 13.653333-13.653333l279.893333 0c6.826667 0 13.653333 6.826667 13.653333 13.653333l0 30.72C303.786667 580.266667 296.96 587.093333 290.133333 587.093333z" p-id="1384"></path></svg>