
<?xml version="1.0" standalone="no"?><!DOCTYPE svg PUBLIC "-//W3C//DTD SVG 1.1//EN" "http://www.w3.org/Graphics/SVG/1.1/DTD/svg11.dtd"><svg t="1497165041011" class="icon" style="" viewBox="0 0 1024 1024" version="1.1" xmlns="http://www.w3.org/2000/svg" p-id="9857" xmlns:xlink="http://www.w3.org/1999/xlink" width="200" height="200"><defs><style type="text/css"></style></defs><path d="M866.466672 3.897834 440.342848 139.534587c-51.774261 15.355104-93.39053 71.027199-93.39053 124.730692l0 460.653123 0 6.378274c0 0-31.379533-21.77275-99.847549-11.496642-101.068083 14.725151-182.922599 95.359134-182.922599 179.812206 0 84.4137 81.854516 136.187962 182.922599 121.502183s175.323791-92.760577 175.323791-177.253022L422.42856 444.74681c0-37.127854 42.836803-53.112911 42.836803-53.112911l376.908747-122.840833c0 0 42.20685-14.725151 42.20685 25.552468l0 319.898002c0 0-38.427132-22.363331-107.446357-14.055826-101.068083 12.79592-183.040715 91.540044-183.040715 175.953744 0 84.492445 81.972633 138.235309 183.040715 125.400017 101.02871-12.717176 182.922599-91.461299 182.922599-175.953744L959.857202 73.625755C959.857202 19.882891 918.240933-11.45727 866.466672 3.897834z" p-id="9858"></path></svg>