
<?xml version="1.0" standalone="no"?><!DOCTYPE svg PUBLIC "-//W3C//DTD SVG 1.1//EN" "http://www.w3.org/Graphics/SVG/1.1/DTD/svg11.dtd"><svg t="1497153820690" class="icon" style="" viewBox="0 0 1024 1024" version="1.1" xmlns="http://www.w3.org/2000/svg" p-id="5161" xmlns:xlink="http://www.w3.org/1999/xlink" width="200" height="200"><defs><style type="text/css"></style></defs><path d="M910.574183 265.005606l-80.223113 0 0 619.291608 80.223113 0c26.599821 0 48.167023-21.567201 48.167023-48.167023L958.741205 313.172629C958.741205 286.569738 937.174004 265.005606 910.574183 265.005606z" p-id="5162"></path><path d="M63.791373 313.172629l0 522.956539c0 26.599821 21.561062 48.167023 48.168046 48.167023l80.217996 0L192.177416 265.005606l-80.217996 0C85.352435 265.005606 63.791373 286.569738 63.791373 313.172629z" p-id="5163"></path><path d="M677.414889 187.699939c0-26.603915-21.566178-48.168046-48.168046-48.168046L393.279596 139.531893c-26.605961 0-48.167023 21.564132-48.167023 48.168046l0 77.305667L260.148483 265.005606l0 619.291608 502.231519 0L762.380002 265.005606l-84.96409 0L677.415912 187.699939zM379.091456 208.600969c0-18.536168 16.910135-33.55728 37.774325-33.55728l185.012737 0c20.87033 0 37.773302 15.021112 37.773302 33.55728l0 56.404638L379.091456 265.005606 379.091456 208.600969z" p-id="5164"></path></svg>