
<?xml version="1.0" standalone="no"?><!DOCTYPE svg PUBLIC "-//W3C//DTD SVG 1.1//EN" "http://www.w3.org/Graphics/SVG/1.1/DTD/svg11.dtd"><svg t="1497167724926" class="icon" style="" viewBox="0 0 1024 1024" version="1.1" xmlns="http://www.w3.org/2000/svg" p-id="3992" xmlns:xlink="http://www.w3.org/1999/xlink" width="200" height="200"><defs><style type="text/css"></style></defs><path d="M43.992985 7.937984 43.992985 7.937984 43.992985 7.937984Z" p-id="3993"></path><path d="M973.308706 278.956651q22.68676 32.323473 10.208248 73.140589l-155.917891 513.698729q-10.779783 36.292465-43.373147 60.947845t-69.457364 24.671256l-523.335442 0q-43.658915 0-84.20614-30.338977t-56.423194-74.55355q-13.605705-37.991194-1.127194-72.013395 0-2.270264 1.698729-15.304434t2.270264-20.972155q0.571535-4.540527-1.698729-12.192744t-1.698729-11.049674q1.127194-6.239256 4.540527-11.906977t9.350946-13.319938 9.350946-13.319938q13.034171-21.54369 25.512682-51.882667t17.003163-51.882667q1.698729-5.667721 0.285767-17.003163t-0.285767-15.875969q1.698729-6.239256 9.636713-15.875969t9.636713-13.034171q11.906977-20.416496 23.813953-52.168434t14.17724-51.025364q0.571535-5.096186-1.412961-18.146233t0.285767-15.875969q2.270264-7.36645 12.478512-17.28893t12.478512-12.764279q10.779783-14.748775 24.099721-47.913674t15.590202-54.708589q0.571535-4.540527-1.698729-14.463008t-1.127194-15.018667q1.127194-4.540527 5.096186-10.208248t10.208248-13.034171 9.636713-11.906977q4.540527-6.810791 9.350946-17.28893t8.509519-19.844961 9.065178-20.416496 11.049674-18.146233 15.018667-13.319938 20.416496-6.525023 26.925643 3.11169l-0.571535 1.698729q21.54369-5.096186 28.91014-5.096186l431.492961 0q41.960186 0 64.63107 31.751938t10.208248 73.712124l-155.362233 513.698729q-20.416496 67.472868-40.547225 87.032062t-72.854822 19.559194l-492.726574 0q-15.304434 0-21.54369 8.509519-6.239256 9.065178-0.571535 24.385488 13.605705 39.689922 81.650109 39.689922l523.335442 0q16.447504 0 31.751938-8.795287t19.844961-23.528186l170.095132-559.627907q3.968992-12.478512 2.841798-32.323473 21.54369 8.509519 33.450667 24.385488zM370.021884 280.099721q-2.270264 7.36645 1.127194 12.764279t11.335442 5.381953l344.730791 0q7.36645 0 14.463008-5.381953t9.350946-12.764279l11.906977-36.292465q2.270264-7.36645-1.127194-12.764279t-11.335442-5.381953l-344.730791 0q-7.36645 0-14.463008 5.381953t-9.350946 12.764279zM322.949636 425.253705q-2.270264 7.36645 1.127194 12.764279t11.335442 5.381953l344.730791 0q7.36645 0 14.463008-5.381953t9.350946-12.764279l11.906977-36.292465q2.270264-7.36645-1.127194-12.764279t-11.335442-5.381953l-344.730791 0q-7.36645 0-14.463008 5.381953t-9.350946 12.764279z" p-id="3994"></path></svg>