
<?xml version="1.0" standalone="no"?><!DOCTYPE svg PUBLIC "-//W3C//DTD SVG 1.1//EN" "http://www.w3.org/Graphics/SVG/1.1/DTD/svg11.dtd"><svg t="1497168411958" class="icon" style="" viewBox="0 0 1024 1024" version="1.1" xmlns="http://www.w3.org/2000/svg" p-id="15462" xmlns:xlink="http://www.w3.org/1999/xlink" width="200" height="200"><defs><style type="text/css"></style></defs><path d="M109.714305 950.857146l164.571421 0 0-164.571421-164.571421 0 0 164.571421zM310.857153 950.857146l182.857134 0 0-164.571421-182.857134 0 0 164.571421zM109.714305 749.714299l164.571421 0 0-182.857134-164.571421 0 0 182.857134zM310.857153 749.714299l182.857134 0 0-182.857134-182.857134 0 0 182.857134zM109.714305 530.285738l164.571421 0 0-164.571421-164.571421 0 0 164.571421zM530.285713 950.857146l182.857134 0 0-164.571421-182.857134 0 0 164.571421zM310.857153 530.285738l182.857134 0 0-164.571421-182.857134 0 0 164.571421zM749.714274 950.857146l164.571421 0 0-164.571421-164.571421 0 0 164.571421zM530.285713 749.714299l182.857134 0 0-182.857134-182.857134 0 0 182.857134zM329.142866 256.000037l0-164.571421q0-7.424-5.412571-12.873142t-12.873142-5.412571l-36.571427 0q-7.424 0-12.873142 5.412571t-5.412571 12.873142l0 164.571421q0 7.424 5.412571 12.873142t12.873142 5.412571l36.571427 0q7.424 0 12.873142-5.412571t5.412571-12.873142zM749.714274 749.714299l164.571421 0 0-182.857134-164.571421 0 0 182.857134zM530.285713 530.285738l182.857134 0 0-164.571421-182.857134 0 0 164.571421zM749.714274 530.285738l164.571421 0 0-164.571421-164.571421 0 0 164.571421zM767.999988 256.000037l0-164.571421q0-7.424-5.412571-12.873142t-12.873142-5.412571l-36.571427 0q-7.424 0-12.873142 5.412571t-5.412571 12.873142l0 164.571421q0 7.424 5.412571 12.873142t12.873142 5.412571l36.571427 0q7.424 0 12.873142-5.412571t5.412571-12.873142zM987.428548 219.42861l0 731.428536q0 29.695999-21.723428 51.419426t-51.419426 21.723428l-804.57139 0q-29.695999 0-51.419426-21.723428t-21.723428-51.419426l0-731.428536q0-29.695999 21.723428-51.419426t51.419426-21.723428l73.142854 0 0-54.85714q0-37.705141 26.843427-64.58514t64.58514-26.843427l36.571427 0q37.705141 0 64.58514 26.843427t26.843427 64.58514l0 54.85714 219.428561 0 0-54.85714q0-37.705141 26.843427-64.58514t64.58514-26.843427l36.571427 0q37.705141 0 64.58514 26.843427t26.843427 64.58514l0 54.85714 73.142854 0q29.695999 0 51.419426 21.723428t21.723428 51.419426z" p-id="15463"></path></svg>