<?xml version="1.0" standalone="no"?><!DOCTYPE svg PUBLIC "-//W3C//DTD SVG 1.1//EN" "http://www.w3.org/Graphics/SVG/1.1/DTD/svg11.dtd"><svg t="1497170188667" class="icon" style="" viewBox="0 0 1280 1024" version="1.1" xmlns="http://www.w3.org/2000/svg" p-id="25287" xmlns:xlink="http://www.w3.org/1999/xlink" width="250" height="200"><defs><style type="text/css"></style></defs><path d="M1005.653333 621.312c-45.226667 0-81.493333-38.4-81.493333-86.186667 0-47.36 36.266667-85.76 81.493333-85.76s81.493333 38.4 81.493333 85.76C1087.146667 582.912 1050.88 621.312 1005.653333 621.312zM245.333333 366.592l70.4-205.226667c8.96-27.733333 72.106667-57.173333 103.253333-57.173333l444.16 0c31.146667 0 92.16 29.44 101.12 57.173333l72.106667 206.933333L245.333333 366.592zM274.346667 621.312c-45.226667 0-81.493333-38.4-81.493333-86.186667 0-47.36 36.266667-85.76 81.493333-85.76s81.493333 38.4 81.493333 85.76C355.84 582.912 319.573333 621.312 274.346667 621.312zM1133.226667 360.618667l-94.293333-250.026667c-17.92-47.786667-98.986667-88.32-171.946667-88.32L413.013333 22.272c-72.533333 0-154.026667 40.533333-171.946667 88.32l-94.293333 250.026667C109.226667 365.312 42.666667 410.538667 42.666667 495.872l2.986667 334.506667 125.866667 0.426667 0.426667 77.653333c0 125.44 160.853333 123.306667 160.853333-0.426667l2.56-79.36 604.586667 1.706667 0 81.92c0 123.733333 168.106667 110.506667 168.106667-1.28l-1.706667-79.36 126.293333-2.986667 4.693333-332.8C1237.333333 410.538667 1170.773333 365.312 1133.226667 360.618667z" p-id="25288"></path></svg>