
<?xml version="1.0" standalone="no"?><!DOCTYPE svg PUBLIC "-//W3C//DTD SVG 1.1//EN" "http://www.w3.org/Graphics/SVG/1.1/DTD/svg11.dtd"><svg t="1508291616899" class="icon" style="" viewBox="0 0 1024 1024" version="1.1" xmlns="http://www.w3.org/2000/svg" p-id="2378" xmlns:xlink="http://www.w3.org/1999/xlink" width="200" height="200"><defs><style type="text/css"></style></defs><path d="M859.428571 512l78.857143 77.142857q17.142857 16 11.428571 40-6.857143 23.428571-29.714286 29.142857l-107.428571 27.428571 30.285714 106.285714q6.857143 23.428571-10.857143 40-16.571429 17.714286-40 10.857143l-106.285714-30.285714-27.428571 107.428571q-5.714286 22.857143-29.142857 29.714286-6.857143 1.142857-10.857143 1.142857-17.714286 0-29.142857-12.571429l-77.142857-78.857143-77.142857 78.857143q-16 17.142857-40 11.428571-23.428571-6.285714-29.142857-29.714286l-27.428571-107.428571-106.285714 30.285714q-23.428571 6.857143-40-10.857143-17.714286-16.571429-10.857143-40l30.285714-106.285714-107.428571-27.428571q-22.857143-5.714286-29.714286-29.142857-5.714286-24 11.428571-40l78.857143-77.142857-78.857143-77.142857q-17.142857-16-11.428571-40 6.857143-23.428571 29.714286-29.142857l107.428571-27.428571-30.285714-106.285714q-6.857143-23.428571 10.857143-40 16.571429-17.714286 40-10.857143l106.285714 30.285714 27.428571-107.428571q5.714286-23.428571 29.142857-29.142857 23.428571-6.857143 40 10.857143l77.142857 79.428571 77.142857-79.428571q16.571429-17.142857 40-10.857143 23.428571 5.714286 29.142857 29.142857l27.428571 107.428571 106.285714-30.285714q23.428571-6.857143 40 10.857143 17.714286 16.571429 10.857143 40l-30.285714 106.285714 107.428571 27.428571q22.857143 5.714286 29.714286 29.142857 5.714286 24-11.428571 40z" p-id="2379"></path></svg>