<?xml version="1.0" standalone="no"?><!DOCTYPE svg PUBLIC "-//W3C//DTD SVG 1.1//EN" "http://www.w3.org/Graphics/SVG/1.1/DTD/svg11.dtd"><svg t="1497170555952" class="icon" style="" viewBox="0 0 1024 1024" version="1.1" xmlns="http://www.w3.org/2000/svg" p-id="30355" xmlns:xlink="http://www.w3.org/1999/xlink" width="200" height="200"><defs><style type="text/css"></style></defs><path d="M464.571429 742.285714l350.857143-350.857143q10.857143-10.857143 10.857143-25.714286t-10.857143-25.714286l-58.285714-58.285714q-10.857143-10.857143-25.714286-10.857143t-25.714286 10.857143l-266.857143 266.857143-120.571429-120.571429q-10.857143-10.857143-25.714286-10.857143t-25.714286 10.857143l-58.285714 58.285714q-10.857143 10.857143-10.857143 25.714286t10.857143 25.714286l204.571429 204.571429q10.857143 10.857143 25.714286 10.857143t25.714286-10.857143zm486.285714-504.571429l0 548.571429q0 68-48.285714 116.285714t-116.285714 48.285714l-548.571429 0q-68 0-116.285714-48.285714t-48.285714-116.285714l0-548.571429q0-68 48.285714-116.285714t116.285714-48.285714l548.571429 0q68 0 116.285714 48.285714t48.285714 116.285714z" p-id="30356"></path></svg>