<svg viewBox="0 0 1024 1024" version="1.1" xmlns="http://www.w3.org/2000/svg" p-id="2518" xmlns:xlink="http://www.w3.org/1999/xlink" width="50" height="50"><path d="M914.112 313.248A449.216 449.216 0 0 0 140.128 261.152l180.448 312.704a200.48 200.48 0 0 1 188.48-260.576" fill="#DF2227" p-id="2519"></path><path d="M476.992 958.688a448.992 448.992 0 0 0 437.12-645.44H509.056A200.448 200.448 0 0 1 665.6 637.984" fill="#FFCE42" p-id="2520"></path><path d="M511.072 512.096m-180.448 0a180.448 180.448 0 1 0 360.896 0 180.448 180.448 0 1 0-360.896 0Z" fill="#4A8AF4" p-id="2521"></path><path d="M511.072 710.4a198.4 198.4 0 1 1 198.4-198.4 198.688 198.688 0 0 1-198.4 198.4z m0-360.8A162.368 162.368 0 1 0 673.504 512a162.56 162.56 0 0 0-162.432-162.272z" fill="#FFFFFF" p-id="2522"></path><path d="M320.576 573.856L140.128 261.152a449.024 449.024 0 0 0 336.864 697.6L665.6 637.984a200.544 200.544 0 0 1-344.896-64" fill="#15A05D" p-id="2523"></path></svg>