
<?xml version="1.0" standalone="no"?><!DOCTYPE svg PUBLIC "-//W3C//DTD SVG 1.1//EN" "http://www.w3.org/Graphics/SVG/1.1/DTD/svg11.dtd"><svg t="1500624781994" class="icon" style="" viewBox="0 0 1024 1024" version="1.1" xmlns="http://www.w3.org/2000/svg" p-id="3548" xmlns:xlink="http://www.w3.org/1999/xlink" width="200" height="200"><defs><style type="text/css"></style></defs><path d="M117.746347 513.303893c0.044373-184.09472 127.901013-344.79104 307.4048-384.894293 98.94912-22.104747 193.122987-7.75168 281.862827 41.458347 10.84416 6.01088 15.824213 16.10752 13.707947 27.21792-1.928533 10.134187-10.298027 17.967787-21.056853 19.633493-6.4 0.989867-12.066133-1.082027-17.544533-4.17792-32-18.10432-66.071893-30.610773-102.079147-38.02112-156.637867-32.24576-319.55968 52.374187-383.39584 199.03488-23.186773 53.271893-32.812373 108.803413-28.52864 166.68672 10.47552 141.540693 109.2096 264.106667 245.05344 304.448853 185.3952 55.06048 378.688853-50.111147 431.844693-236.096853 26.258773-91.880107 15.059627-180.278613-31.034027-264.07936-5.413547-9.84064-6.464853-19.421867 0.1536-28.842667 10.584747-15.076693 32.382293-13.707947 41.78944 2.624853 13.912747 24.152747 24.941227 49.60256 33.39264 76.16512 16.407893 51.572053 22.084267 104.35584 16.66048 158.143147-16.206507 160.723627-127.726933 295.0144-282.108587 340.224-218.487467 63.982933-446.242133-70.045013-496.51712-292.23936C120.855893 571.876693 117.742933 542.754133 117.746347 513.303893zM488.239787 427.011413c0.006827-28.83584-0.075093-57.67168 0.0512-86.504107 0.047787-10.615467 5.300907-18.315947 14.99136-22.3744 9.669973-4.051627 18.793813-2.32448 26.55232 4.840107 5.7344 5.297493 7.77216 12.151467 7.758507 19.858773-0.07168 40.94976-0.0512 81.89952-0.064853 122.84928-0.003413 10.919253 0.14336 21.84192-0.08192 32.75776-0.07168 3.539627 1.01376 5.9904 3.50208 8.46848 37.23264 37.085867 74.390187 74.25024 111.527253 111.43168 10.769067 10.78272 11.260587 26.016427 1.297067 36.078933-8.891733 8.983893-23.282347 9.762133-33.047893 1.737387-1.57696-1.297067-3.01056-2.771627-4.457813-4.21888-39.458133-39.44448-78.851413-78.957227-118.4256-118.289067-6.591147-6.550187-9.80992-13.820587-9.714347-23.197013C488.413867 482.638507 488.23296 454.823253 488.239787 427.011413z" p-id="3549"></path></svg>