
<?xml version="1.0" standalone="no"?><!DOCTYPE svg PUBLIC "-//W3C//DTD SVG 1.1//EN" "http://www.w3.org/Graphics/SVG/1.1/DTD/svg11.dtd"><svg t="1491534818338" class="icon" style="" viewBox="0 0 1024 1024" version="1.1" xmlns="http://www.w3.org/2000/svg" p-id="2359" xmlns:xlink="http://www.w3.org/1999/xlink" width="200" height="200"><defs><style type="text/css"></style></defs><path d="M286.3134 376.940978c-31.017434 0-56.165184 26.079982-56.165184 58.262962 0 32.184003 25.14775 58.263985 56.165184 58.263985 31.017434 0 56.165184-26.079982 56.165184-58.263985C342.478584 403.021983 317.330834 376.940978 286.3134 376.940978zM510.976182 376.940978c-31.017434 0-56.165184 26.079982-56.165184 58.262962 0 32.184003 25.148773 58.263985 56.165184 58.263985s56.165184-26.079982 56.165184-58.263985C567.141366 403.021983 541.992593 376.940978 510.976182 376.940978zM735.638965 376.940978c-31.017434 0-56.166207 26.079982-56.166207 58.262962 0 32.184003 25.148773 58.263985 56.166207 58.263985s56.165184-26.079982 56.165184-58.263985C791.804149 403.021983 766.655376 376.940978 735.638965 376.940978zM847.968309 85.637426 173.982008 85.637426c-62.034868 0-112.330368 52.175313-112.330368 116.526947l0 436.95584c0 64.352657 51.421136 123.670647 114.88147 123.670647l171.183777 0c29.837562 31.785937 153.332201 159.63986 153.332201 159.63986 5.483898 5.703909 14.370289 5.703909 19.854187 0 0 0 90.418312-102.513792 149.328004-159.63986L845.41823 762.79086c63.461357 0 114.882494-59.319014 114.882494-123.670647L960.300724 202.164373C960.300724 137.812739 910.004201 85.637426 847.968309 85.637426zM904.13554 639.120212c0 32.1707-26.986631 65.929572-58.71731 65.929572L673.137469 705.049784c-20.869307 0-39.628556 21.459754-39.628556 21.459754L512.538771 851.977112l-120.942513-125.467573c0 0-23.037692-21.459754-42.782386-21.459754L176.533111 705.049784c-31.730679 0-58.716286-33.758871-58.716286-65.929572L117.816824 202.164373c0-32.18298 25.14775-58.265008 56.165184-58.265008l673.986301 0c31.017434 0 56.167231 26.082028 56.167231 58.265008L904.13554 639.120212z" p-id="2360"></path></svg>