
<?xml version="1.0" standalone="no"?><!DOCTYPE svg PUBLIC "-//W3C//DTD SVG 1.1//EN" "http://www.w3.org/Graphics/SVG/1.1/DTD/svg11.dtd"><svg t="1490960952955" class="icon" style="" viewBox="0 0 1024 1024" version="1.1" xmlns="http://www.w3.org/2000/svg" p-id="2381" xmlns:xlink="http://www.w3.org/1999/xlink" width="200" height="200"><defs><style type="text/css"></style></defs><path d="M779.956 785.889v-548.85c-7.004-51.993-42.847-65.918-68.555-69.050h-393.118c-53.147 6.015-72.428 39.386-78.937 68.72l0.742 549.179-109.919 0.989v67.154l763.825 1.977-2.72-69.131-111.319-0.989zM358.824 262.5l105.551-0.33-0.247 113.791-105.634 0.33 0.33-113.791zM465.116 449.295l-0.247 113.791-105.633 0.33 0.33-113.791 105.551-0.33zM465.94 789.267l-108.023 0.33 0.907-151.858 107.693-1.072-0.577 152.6zM667.896 750.54l-105.634 0.33 0.33-113.873 105.551-0.33-0.247 113.873zM667.896 563.086l-105.634 0.33 0.33-113.791 105.551-0.33-0.247 113.791zM667.896 375.962l-105.634 0.33 0.33-113.791 105.551-0.33-0.247 113.791z" p-id="2382"></path></svg>