<?xml version="1.0" standalone="no"?><!DOCTYPE svg PUBLIC "-//W3C//DTD SVG 1.1//EN" "http://www.w3.org/Graphics/SVG/1.1/DTD/svg11.dtd"><svg t="1490347302505" class="icon" style="" viewBox="0 0 1170 1024" version="1.1" xmlns="http://www.w3.org/2000/svg" p-id="1903" xmlns:xlink="http://www.w3.org/1999/xlink" width="228.515625" height="200"><defs><style type="text/css"></style></defs><path d="M1170.285714 511.428571q0 12-7.428571 20.857143t-18.857143 11.142857l-117.142857 203.428572q1.714286 5.142857 1.714286 10.285714 0 11.428571-7.142858 20.285714T1002.857143 788.571429l-110.285714 192.571428q1.714286 4.571429 1.714285 9.142857 0 13.142857-9.428571 22.857143t-23.142857 9.714286q-14.285714 0-23.428572-10.285714H609.714286q-9.714286 11.428571-24.571429 11.428571t-24.571428-11.428571H332.571429q-9.714286 11.428571-24.571429 11.428571-13.142857 0-22.857143-9.428571t-9.714286-23.142858q0-4.571429 2.285715-11.428571l-110.285715-191.428571q-11.428571-2.285714-18.571428-11.142858T141.714286 757.142857q0-5.142857 1.714285-10.285714L25.714286 543.428571q-11.428571-2.857143-18.571429-11.714285T0 511.428571q0-12 7.714286-20.857142T26.857143 479.428571l113.714286-196.571428q0-0.571429-0.285715-1.714286t-0.285714-1.714286q0-20.571429 19.428571-29.142857L278.857143 42.857143q-2.285714-5.714286-2.285714-10.285714 0-13.714286 9.714285-23.142858T309.142857 0q14.857143 0 25.142857 12h226.285715q9.142857-12 24.571428-12t24.571429 12h227.428571q10.285714-12 25.142857-12 13.142857 0 22.857143 9.428571t9.714286 23.142858q0 3.428571-2.285714 10.285714l118.285714 204.571428q13.142857 0.571429 22.285714 10t9.142857 22q0 7.428571-4 15.428572l106.857143 185.142857q10.857143 2.285714 18 11.142857T1170.285714 511.428571z m-562.857143 456.571429h222.285715l-195.428572-202.285714H552.571429l-195.428572 202.285714h205.714286q10.285714-9.142857 22.285714-9.142857t22.285714 9.142857zM64 504q0.571429 2.285714 0.571429 7.428571 0 5.714286-1.142858 8.571429l118.857143 205.714286q1.142857 0 2.571429 0.571428t3.142857 1.428572l2.857143 1.428571 107.428571-113.714286V417.142857L191.428571 306.285714q-7.428571 4.571429-16.571428 5.714286zM563.428571 56H341.714286l108.571428 114.285714 316.571429-114.285714H606.857143q-9.142857 9.142857-21.714286 9.142857t-21.714286-9.142857z m401.714286 692.571429q0.571429-3.428571 2.857143-6.285715l-36.571429-38.857143-9.714285 45.142858h43.428571z m-60.571428 0l12.571428-60-144-152-169.142857 175.428571 36 36.571429h264.571429z m-50.285715 210.285714l9.142857-16 37.142858-177.142857h-244l190.285714 196q4.571429-2.285714 7.428571-2.857143z m-524 9.142857h2.857143l195.428572-202.285714H315.428571v191.428571l2.285715 3.428572q8 2.857143 12.571428 7.428571z m-14.857143-219.428571h229.714286l36.571429-37.714286-176.571429-183.428572-89.714286 94.857143v126.285715z m-110.285714 0h93.142857v-108l-96 101.142857q2.285714 4.571429 2.857143 6.857143z m-0.571428-471.428572q0 0.571429 0.285714 1.142857t0.285714 1.142857q0 9.142857-4.571428 16.571429l97.714285 101.142857V243.428571z m110.857142-40v177.714286l87.428572 89.714286 169.714286-179.428572-127.428572-134.857143z m2.285715-173.714286l-2.285715 4.571429v150.857143l117.142858-42.285714-109.142858-114.857143q-3.428571 1.142857-5.714285 1.714285z m509.142857-7.428571h-9.142857L462.857143 184l121.714286 128.571429zM584.571429 337.142857L414.857143 517.142857l177.714286 182.285714 169.142857-175.428571zM393.142857 515.428571L315.428571 434.857143v162.285714z m200 208l-24 25.142858h48.571429z m192-198.857142l136 143.428571 75.428572-356.571429-1.714286-2.857142-0.571429-0.571429z m196.571429-228.571429q-4.571429-7.428571-4.571429-16.571429v-1.142857l-123.428571-214.857143q-2.857143-0.571429-7.428572-2.857142L596.571429 325.142857l177.142857 186.857143zM298.285714 225.142857V97.714286L205.142857 258.857143z m0 540.571429H205.142857l93.142857 161.714285v-161.714285z m620 0l-27.428571 129.714285 74.285714-129.714285h-46.857143z m69.714286-40l118.285714-206.285715q-1.142857-5.714286-1.142857-8 0-0.571429 1.714286-9.142857l-97.714286-169.142857-73.714286 349.714286 44 46.857143q2.857143-1.714286 8.571429-4z" p-id="1904"></path></svg>