
<?xml version="1.0" standalone="no"?><!DOCTYPE svg PUBLIC "-//W3C//DTD SVG 1.1//EN" "http://www.w3.org/Graphics/SVG/1.1/DTD/svg11.dtd"><svg t="1497166842395" class="icon" style="" viewBox="0 0 1024 1024" version="1.1" xmlns="http://www.w3.org/2000/svg" p-id="25488" xmlns:xlink="http://www.w3.org/1999/xlink" width="200" height="200"><defs><style type="text/css"></style></defs><path d="M219.428571 658.285714q0-30.281143-21.430857-51.712t-51.712-21.430857-51.712 21.430857-21.430857 51.712 21.430857 51.712 51.712 21.430857 51.712-21.430857 21.430857-51.712zM329.142857 402.285714q0-30.281143-21.430857-51.712t-51.712-21.430857-51.712 21.430857-21.430857 51.712 21.430857 51.712 51.712 21.430857 51.712-21.430857 21.430857-51.712zM573.696 677.156571l57.709714-218.294857q3.437714-14.848-4.278857-27.721143t-22.016-16.859429-27.428571 3.730286-17.152 22.564571l-57.709714 218.294857q-34.304 2.852571-61.147429 24.868571t-35.986286 56.283429q-11.446857 43.995429 11.446857 83.419429t66.852571 50.870857 83.419429-11.446857 50.870857-66.852571q9.142857-34.304-3.437714-66.852571t-41.142857-52.004571zM950.857143 658.285714q0-30.281143-21.430857-51.712t-51.712-21.430857-51.712 21.430857-21.430857 51.712 21.430857 51.712 51.712 21.430857 51.712-21.430857 21.430857-51.712zM585.142857 292.571429q0-30.281143-21.430857-51.712t-51.712-21.430857-51.712 21.430857-21.430857 51.712 21.430857 51.712 51.712 21.430857 51.712-21.430857 21.430857-51.712zM841.142857 402.285714q0-30.281143-21.430857-51.712t-51.712-21.430857-51.712 21.430857-21.430857 51.712 21.430857 51.712 51.712 21.430857 51.712-21.430857 21.430857-51.712zM1024 658.285714q0 149.138286-80.566857 276.004571-10.861714 16.566857-30.866286 16.566857l-801.133714 0q-20.004571 0-30.866286-16.566857-80.566857-126.281143-80.566857-276.004571 0-104.009143 40.557714-198.838857t109.129143-163.437714 163.437714-109.129143 198.838857-40.557714 198.838857 40.557714 163.437714 109.129143 109.129143 163.437714 40.557714 198.838857z" p-id="25489"></path></svg>