
<?xml version="1.0" standalone="no"?><!DOCTYPE svg PUBLIC "-//W3C//DTD SVG 1.1//EN" "http://www.w3.org/Graphics/SVG/1.1/DTD/svg11.dtd"><svg t="1497167661321" class="icon" style="" viewBox="0 0 1024 1024" version="1.1" xmlns="http://www.w3.org/2000/svg" p-id="2787" xmlns:xlink="http://www.w3.org/1999/xlink" width="200" height="200"><defs><style type="text/css"></style></defs><path d="M512 438.857143q135.428571 0 253.142857-24.571429t185.714286-72.571428v97.142857q0 39.428571-58.857143 73.142857t-160 53.428571-220 19.714286-220-19.714286T132 512 73.142857 438.857143V341.714286q68 48 185.714286 72.571428t253.142857 24.571429z m0 438.857143q135.428571 0 253.142857-24.571429t185.714286-72.571428v97.142857q0 39.428571-58.857143 73.142857t-160 53.428571-220 19.714286-220-19.714286-160-53.428571-58.857143-73.142857v-97.142857q68 48 185.714286 72.571428t253.142857 24.571429z m0-219.428572q135.428571 0 253.142857-24.571428t185.714286-72.571429v97.142857q0 39.428571-58.857143 73.142857t-160 53.428572-220 19.714286-220-19.714286-160-53.428572-58.857143-73.142857V561.142857q68 48 185.714286 72.571429t253.142857 24.571428zM512 0q118.857143 0 220 19.714286t160 53.428571 58.857143 73.142857v73.142857q0 39.428571-58.857143 73.142858t-160 53.428571T512 365.714286t-220-19.714286T132 292.571429 73.142857 219.428571V146.285714q0-39.428571 58.857143-73.142857t160-53.428571T512 0z" fill="" p-id="2788"></path></svg>