
<?xml version="1.0" standalone="no"?><!DOCTYPE svg PUBLIC "-//W3C//DTD SVG 1.1//EN" "http://www.w3.org/Graphics/SVG/1.1/DTD/svg11.dtd"><svg t="1490853812426" class="icon" style="" viewBox="0 0 1490 1024" version="1.1" xmlns="http://www.w3.org/2000/svg" p-id="5757" xmlns:xlink="http://www.w3.org/1999/xlink" width="291.015625" height="200"><defs><style type="text/css"></style></defs><path d="M1249.373091 425.642667C1208.133818 180.534303 997.282909 0 744.727273 0 526.987636 0 337.082182 134.17503 263.695515 336.647758 109.288727 375.249455 0 513.210182 0 674.909091 0 856.808727 141.591273 1010.067394 325.818182 1024L1210.181818 1024C1211.578182 1024 1212.974545 1023.937939 1214.370909 1023.813818 1368.622545 1009.881212 1489.454545 877.102545 1489.454545 721.454545 1489.454545 578.032485 1386.682182 454.780121 1249.373091 425.642667ZM744.727273 837.818182 465.454545 558.545455 698.181818 558.545455 698.181818 325.818182 791.272727 325.818182 791.272727 558.545455 1024 558.545455 744.727273 837.818182Z" p-id="5758"></path></svg>