
<?xml version="1.0" standalone="no"?><!DOCTYPE svg PUBLIC "-//W3C//DTD SVG 1.1//EN" "http://www.w3.org/Graphics/SVG/1.1/DTD/svg11.dtd"><svg t="1497169007669" class="icon" style="" viewBox="0 0 1024 1024" version="1.1" xmlns="http://www.w3.org/2000/svg" p-id="19802" xmlns:xlink="http://www.w3.org/1999/xlink" width="200" height="200"><defs><style type="text/css"></style></defs><path d="M819.9 3.5H207.6C94.8 3.5 3.4 94.8 3.4 207.6v612.3c0 112.7 91.4 204.1 204.1 204.1h612.3c112.7 0 204.1-91.4 204.1-204.1V207.6c0.1-112.8-91.3-204.1-204-204.1z m102 816.4c0 56.4-45.7 102.1-102 102.1H207.6c-56.4 0-102.1-45.7-102.1-102.1V207.6h816.4v612.3z" p-id="19803"></path><path d="M277.9 467.1l108.2-108.2 72.2 72.2-108.2 108.1 108.2 108.2-72.2 72.2-108.2-108.2-72.2-72.2 72.2-72.1z m363.4-108.3L749.5 467l72.2 72.2-72.2 72.2-108.2 108.2-72.2-72.2 108.2-108.2L569.1 431l72.2-72.2z" p-id="19804"></path></svg>