
<?xml version="1.0" standalone="no"?><!DOCTYPE svg PUBLIC "-//W3C//DTD SVG 1.1//EN" "http://www.w3.org/Graphics/SVG/1.1/DTD/svg11.dtd"><svg t="1497168237826" class="icon" style="" viewBox="0 0 1025 1024" version="1.1" xmlns="http://www.w3.org/2000/svg" p-id="13003" xmlns:xlink="http://www.w3.org/1999/xlink" width="200.1953125" height="200"><defs><style type="text/css"></style></defs><path d="M1024.032 676.576l0 109.728q0 7.424-5.44 12.864t-12.864 5.44l-786.272 0 0 109.728q0 7.424-5.44 12.864t-12.864 5.44q-6.848 0-13.728-5.728l-182.272-182.848q-5.152-5.152-5.152-12.576 0-8 5.152-13.152l182.848-182.848q5.152-5.152 13.152-5.152 7.424 0 12.864 5.44t5.44 12.864l0 109.728 786.272 0q7.424 0 12.864 5.44t5.44 12.864zM1024.032 365.728q0 8-5.152 13.152l-182.848 182.848q-5.152 5.152-13.152 5.152-7.424 0-12.864-5.44t-5.44-12.864l0-109.728-786.272 0q-7.424 0-12.864-5.44t-5.44-12.864l0-109.728q0-7.424 5.44-12.864t12.864-5.44l786.272 0 0-109.728q0-8 5.152-13.152t13.152-5.152q6.848 0 13.728 5.728l182.272 182.272q5.152 5.152 5.152 13.152z" p-id="13004"></path></svg>