
<?xml version="1.0" standalone="no"?><!DOCTYPE svg PUBLIC "-//W3C//DTD SVG 1.1//EN" "http://www.w3.org/Graphics/SVG/1.1/DTD/svg11.dtd"><svg t="1491535145285" class="icon" style="" viewBox="0 0 1024 1024" version="1.1" xmlns="http://www.w3.org/2000/svg" p-id="3682" xmlns:xlink="http://www.w3.org/1999/xlink" width="200" height="200"><defs><style type="text/css"></style></defs><path d="M512.5888 829.37344c-230.04672 0-426.70592-135.18336-508.06784-326.65088 81.36192-191.43168 278.02112-326.5792 508.06784-326.5792 230.0416 0 426.66496 135.14752 508.06784 326.5792C939.24864 694.18496 742.6304 829.37344 512.5888 829.37344L512.5888 829.37344zM512.5888 241.42848c-191.28832 0-355.93728 106.94656-432.98304 261.29408 77.04576 154.34752 241.69472 261.28896 432.98304 261.28896 191.2832 0 355.93728-106.94656 432.97792-261.28896C868.52608 348.37504 703.872 241.42848 512.5888 241.42848L512.5888 241.42848zM512.5888 676.95104c-100.92544 0-182.7584-77.98784-182.7584-174.19264 0-96.20992 81.83296-174.19264 182.7584-174.19264 100.92544 0 182.7584 77.98272 182.7584 174.19264C695.3472 598.9632 613.51424 676.95104 512.5888 676.95104L512.5888 676.95104zM512.5888 393.85088c-63.06816 0-114.20672 48.77312-114.20672 108.90752 0 60.12928 51.13344 108.87168 114.20672 108.87168 63.07328 0 114.24768-48.7424 114.24768-108.87168C626.83648 442.624 575.66208 393.85088 512.5888 393.85088L512.5888 393.85088zM512.5888 393.85088" p-id="3683"></path></svg>