
<?xml version="1.0" standalone="no"?><!DOCTYPE svg PUBLIC "-//W3C//DTD SVG 1.1//EN" "http://www.w3.org/Graphics/SVG/1.1/DTD/svg11.dtd"><svg t="1491535093217" class="icon" style="" viewBox="0 0 1024 1024" version="1.1" xmlns="http://www.w3.org/2000/svg" p-id="3573" xmlns:xlink="http://www.w3.org/1999/xlink" width="200" height="200"><defs><style type="text/css"></style></defs><path d="M512 855.098c-272.919 0-495.154-331.402-495.154-343.098s222.236-343.098 495.154-343.098c276.818 0 502.951 343.098 499.052 343.098-3.899-3.899-222.236 343.098-499.052 343.098zM508.101 278.069c-116.965 0-210.537 101.37-210.537 226.132s93.572 226.132 210.537 226.132c116.965 0 210.537-101.37 210.537-226.132 3.899-124.762-93.572-226.132-210.537-226.132zM508.101 605.572c-54.583 0-101.37-46.785-101.37-109.168 0-58.483 42.887-105.269 101.37-105.269 54.583 0 101.37 46.785 101.37 105.269 0 62.382-46.785 109.168-101.37 109.168z" p-id="3574"></path></svg>