
<?xml version="1.0" standalone="no"?><!DOCTYPE svg PUBLIC "-//W3C//DTD SVG 1.1//EN" "http://www.w3.org/Graphics/SVG/1.1/DTD/svg11.dtd"><svg t="1490886318050" class="icon" style="" viewBox="0 0 1024 1024" version="1.1" xmlns="http://www.w3.org/2000/svg" p-id="1005" xmlns:xlink="http://www.w3.org/1999/xlink" width="200" height="200"><defs><style type="text/css"></style></defs><path d="M512.122 272.146c-247.216 0-412.027 247.216-412.027 247.216s164.811 247.216 412.027 247.216c247.216 0 412.027-247.216 412.027-247.216s-164.932-247.216-412.027-247.216v0zM512.122 682.353c-90.537 0-163.962-73.424-163.962-163.962s73.424-163.962 163.962-163.962c90.537 0 163.962 73.424 163.962 163.962-0.122 90.658-73.424 163.962-163.962 163.962v0zM429.716 518.877c0 21.482 8.86 42.841 24.030 58.012s36.53 24.030 58.012 24.030c21.482 0 42.841-8.86 58.012-24.030 15.17-15.17 24.030-36.53 24.030-58.012 0-21.482-8.86-42.841-24.030-58.012-15.17-15.17-36.53-24.030-58.012-24.030-21.482 0-42.841 8.86-58.012 24.030-15.17 15.292-24.030 36.53-24.030 58.012v0z" p-id="1006"></path></svg>