<?xml version="1.0" standalone="no"?><!DOCTYPE svg PUBLIC "-//W3C//DTD SVG 1.1//EN" "http://www.w3.org/Graphics/SVG/1.1/DTD/svg11.dtd"><svg t="1497170084976" class="icon" style="" viewBox="0 0 1024 1024" version="1.1" xmlns="http://www.w3.org/2000/svg" p-id="24086" xmlns:xlink="http://www.w3.org/1999/xlink" width="200" height="200"><defs><style type="text/css"></style></defs><path d="M970.223616 53.776384q53.710848 53.710848 53.710848 129.420288t-53.710848 128.848896l-128.5632 127.420416 59.424768 59.424768q5.71392 5.71392 5.71392 13.142016t-5.71392 13.142016l-119.99232 119.99232q-5.71392 5.71392-13.142016 5.71392t-13.142016-5.71392l-59.99616-59.99616-344.549376 344.549376q-21.141504 21.141504-51.42528 21.141504l-115.992576 0-146.276352 73.138176-36.569088-36.569088 73.138176-146.276352 0-115.992576q0-30.283776 21.141504-51.42528l344.549376-344.549376-59.99616-59.99616q-5.71392-5.71392-5.71392-13.142016t5.71392-13.142016l119.99232-119.99232q5.71392-5.71392 13.142016-5.71392t13.142016 5.71392l59.424768 59.424768 127.420416-128.5632q53.139456-53.710848 128.848896-53.710848t129.420288 53.710848zm-677.670912 787.378176l329.121792-329.121792-109.707264-109.707264-329.121792 329.121792 0 109.707264 109.707264 0z" p-id="24087"></path></svg>