
<?xml version="1.0" standalone="no"?><!DOCTYPE svg PUBLIC "-//W3C//DTD SVG 1.1//EN" "http://www.w3.org/Graphics/SVG/1.1/DTD/svg11.dtd"><svg t="1497165281844" class="icon" style="" viewBox="0 0 1000 1000" version="1.1" xmlns="http://www.w3.org/2000/svg" p-id="12963" xmlns:xlink="http://www.w3.org/1999/xlink" width="200" height="200"><defs><style type="text/css"></style></defs><path d="M148.6875 126.375c0 27.8125-12.375 49.0625-37.0625 63.6875v733c0 5-1.875 9.3125-5.5 13s-8 5.5-13 5.5H56c-5 0-9.3125-1.8125-13-5.5C39.3125 932.375 37.5 928.0625 37.5 923.0625V190.0625C12.8125 175.4375 0.4375 154.1875 0.4375 126.375c0-20.4375 7.25-37.875 21.75-52.375 14.4375-14.4375 31.9375-21.6875 52.375-21.6875 20.5 0 37.9375 7.25 52.375 21.6875C141.4375 88.5 148.6875 105.9375 148.6875 126.375zM1000.875 163.4375v441.75c0 9.625-2.375 17.0625-7.1875 22.25-4.8125 5.25-12.4375 10.5625-22.875 15.9375-83 44.8125-154.1875 67.125-213.625 67.125-23.5625 0-47.375-4.1875-71.5-12.6875-24.1875-8.5-45.125-17.75-62.875-27.8125-17.75-10-40.0625-19.3125-66.8125-27.75-26.8125-8.5-54.375-12.75-82.5-12.75-74.125 0-163.625 28.1875-268.625 84.5625-6.5625 3.5-12.9375 5.25-19.125 5.25-10.0625 0-18.75-3.6875-26.0625-11-7.3125-7.375-11-16.0625-11-26.0625V252.625c0-12.375 6-22.9375 17.9375-31.8125C174.6875 215.375 190 207.0625 212.3125 195.875c91.125-46.3125 172.3125-69.5 243.75-69.5 41.3125 0 79.9375 5.625 115.8125 16.8125 35.875 11.1875 78.125 28.1875 126.75 50.9375 14.625 7.3125 31.625 11 50.9375 11 20.8125 0 43.5-4 68-12.125 24.5625-8.125 45.75-17.1875 63.75-27.25 17.9375-10 34.9375-19.125 50.875-27.1875 16.0625-8.125 26.5625-12.1875 31.5625-12.1875 10.0625 0 18.75 3.6875 26.0625 11S1000.875 153.4375 1000.875 163.4375z" p-id="12964"></path></svg>