
<?xml version="1.0" standalone="no"?><!DOCTYPE svg PUBLIC "-//W3C//DTD SVG 1.1//EN" "http://www.w3.org/Graphics/SVG/1.1/DTD/svg11.dtd"><svg t="1497167834561" class="icon" style="" viewBox="0 0 1026 1024" version="1.1" xmlns="http://www.w3.org/2000/svg" p-id="6299" xmlns:xlink="http://www.w3.org/1999/xlink" width="200.390625" height="200"><defs><style type="text/css"></style></defs><path d="M973.4233 470.96775l-83.489625 0L889.933675 312.9435c0-40.22775-32.572125-72.801-72.801-72.801L446.98855 240.1425c-22.74975 0-41.167125-18.417375-41.167125-41.095125l0 0.57825c0-40.22775-32.572125-72.801-72.801-72.801L72.801175 126.824625c-40.22775 0-72.801 32.572125-72.801 72.801l0 615.55725c0 40.22775 32.572125 80.411625 72.801 80.411625l0 0 745.26975 0c62.708625 0 85.00725-40.25475 99.957375-80.411625l101.039625-271.342125C1034.09005 503.541 1013.65105 470.96775 973.4233 470.96775zM330.56455 202.0815c1.661625 62.7615 53.22825 113.317875 116.350875 113.317875l367.68825 0 0 155.496375-586.45125 0c-40.22775 0-85.006125 32.64525-99.95625 72.801L75.255925 685.7595l0-483.678L330.56455 202.0815z" p-id="6300"></path></svg>