
<?xml version="1.0" standalone="no"?><!DOCTYPE svg PUBLIC "-//W3C//DTD SVG 1.1//EN" "http://www.w3.org/Graphics/SVG/1.1/DTD/svg11.dtd"><svg t="1490854659462" class="icon" style="" viewBox="0 0 1024 1024" version="1.1" xmlns="http://www.w3.org/2000/svg" p-id="2369" xmlns:xlink="http://www.w3.org/1999/xlink" width="200" height="200"><defs><style type="text/css"></style></defs><path d="M362.506215 896.001414C362.506215 878.223817 356.284062 863.112885 343.839756 850.668579 331.39545 838.224273 316.284479 832.002121 298.506922 832.002121 280.729325 832.002121 265.618393 838.224273 253.174087 850.668579 240.729781 863.112885 234.507628 878.223817 234.507628 896.001414 234.507628 913.778971 240.729781 928.889942 253.174087 941.334248 265.618393 953.778554 280.729325 960.000707 298.506922 960.000707 316.284479 960.000707 331.39545 953.778554 343.839756 941.334248 356.284062 928.889942 362.506215 913.778971 362.506215 896.001414ZM362.506215 128.009936C362.506215 110.232378 356.284062 95.121447 343.839756 82.677141 331.39545 70.232835 316.284479 64.010682 298.506922 64.010682 280.729325 64.010682 265.618393 70.232835 253.174087 82.677141 240.729781 95.121447 234.507628 110.232378 234.507628 128.009936 234.507628 145.787532 240.729781 160.898464 253.174087 173.34277 265.618393 185.787076 280.729325 192.009229 298.506922 192.009229 316.284479 192.009229 331.39545 185.787076 343.839756 173.34277 356.284062 160.898464 362.506215 145.787532 362.506215 128.009936ZM789.168103 213.342353C789.168103 195.564756 782.94595 180.453825 770.501644 168.009519 758.057338 155.565213 742.946407 149.34306 725.16881 149.34306 707.391253 149.34306 692.280321 155.565213 679.836015 168.009519 667.391709 180.453825 661.169556 195.564756 661.169556 213.342353 661.169556 231.11991 667.391709 246.230842 679.836015 258.675147 692.280321 271.119453 707.391253 277.341606 725.16881 277.341606 742.946407 277.341606 758.057338 271.119453 770.501644 258.675147 782.94595 246.230842 789.168103 231.11991 789.168103 213.342353ZM853.167396 213.342353C853.167396 236.453201 847.389694 257.897388 835.83425 277.674954 824.278846 297.452521 808.723463 312.8968 789.168103 324.007753 788.279241 451.561889 738.057566 543.56087 638.503119 600.004698 608.281256 616.893393 563.170627 634.893195 503.171313 654.004105 446.283034 671.781662 408.616808 687.55929 390.172555 701.336909 371.728302 715.114527 362.506215 737.336513 362.506215 768.002827L362.506215 785.335973C382.061536 796.446966 397.616918 811.891246 409.172362 831.668772 420.727766 851.446339 426.505468 872.890566 426.505468 896.001414 426.505468 931.556568 414.061162 961.778431 389.17255 986.667042 364.283939 1011.555654 334.062076 1023.99996 298.506922 1023.99996 262.951768 1023.99996 232.729865 1011.555654 207.841253 986.667042 182.952641 961.778431 170.508335 931.556568 170.508335 896.001414 170.508335 872.890566 176.286037 851.446339 187.841481 831.668772 199.396885 811.891246 214.952268 796.446966 234.507628 785.335973L234.507628 238.675376C214.952268 227.564383 199.396885 212.120143 187.841481 192.342577 176.286037 172.565011 170.508335 151.120823 170.508335 128.009936 170.508335 92.454782 182.952641 62.232919 207.841253 37.344307 232.729865 12.455695 262.951768 0.011389 298.506922 0.011389 334.062076 0.011389 364.283939 12.455695 389.17255 37.344307 414.061162 62.232919 426.505468 92.454782 426.505468 128.009936 426.505468 151.120823 420.727766 172.565011 409.172362 192.342577 397.616918 212.120143 382.061536 227.564383 362.506215 238.675376L362.506215 570.00504C386.505925 558.449596 420.727766 545.783085 465.171738 532.005466 489.615899 524.45 509.060117 517.894499 523.504392 512.339003 537.948707 506.783506 553.615193 499.894697 570.503888 491.672575 587.392583 483.450453 600.503545 474.672777 609.836775 465.339547 619.170004 456.006318 628.169925 444.67308 636.836458 431.339912 645.503031 418.006744 651.725184 402.562464 655.502917 385.007073 659.28069 367.451721 661.169556 347.118641 661.169556 324.007753 641.614196 312.8968 626.058813 297.452521 614.503409 277.674954 602.947965 257.897388 597.170263 236.453201 597.170263 213.342353 597.170263 177.787159 609.614569 147.565296 634.503181 122.676684 659.391793 97.788073 689.613656 85.343767 725.16881 85.343767 760.724003 85.343767 790.945866 97.788073 815.834478 122.676684 840.72309 147.565296 853.167396 177.787159 853.167396 213.342353ZM853.167396 213.342353" p-id="2370"></path></svg>