
<?xml version="1.0" standalone="no"?><!DOCTYPE svg PUBLIC "-//W3C//DTD SVG 1.1//EN" "http://www.w3.org/Graphics/SVG/1.1/DTD/svg11.dtd"><svg t="1497164633240" class="icon" style="" viewBox="0 0 1025 1024" version="1.1" xmlns="http://www.w3.org/2000/svg" p-id="5688" xmlns:xlink="http://www.w3.org/1999/xlink" width="200.1953125" height="200"><defs><style type="text/css"></style></defs><path d="M758.58944 397.991936c-69.803008 0-142.749696 63.02208-228.302848 71.974912l0-36.415488c0.482304-89.450496 67.605504-181.649408 179.73248-181.649408l21.250048 0c103.195648 0 209.286144-81.569792 220.623872-219.134976l-36.605952 0c-10.983424 114.738176-98.69824 182.612992-184.01792 182.612992l-21.250048 0c-132.662272 0-215.054336 112.135168-216.233984 216.851456l-0.070656 0 0 1.390592c0 0.285696-0.053248 0.607232-0.053248 0.892928l0.053248 0 0 35.451904c-85.554176-8.952832-158.49984-71.974912-228.303872-71.974912C190.24896 397.991936 0 546.899968 0 838.7584 0 986.560512 99.873792 991.232 112.5888 991.232c0.857088 0 1.32096 0 1.32096 0 62.035968 0 119.28576-29.78304 190.856192-101.257216 71.57248-71.477248 100.178944-90.237952 152.073216-90.237952 20.678656 0 45.535232 0 53.677056 0 1.714176 0 2.965504 0 2.965504 0 8.141824 0 32.999424 0 53.67808 0 51.893248 0 80.499712 18.760704 152.072192 90.237952C790.802432 961.44896 848.053248 991.232 910.089216 991.232c0 0 0.464896 0 1.32096 0C924.105728 991.232 1024 986.560512 1024 838.7584 1024 546.899968 833.750016 397.991936 758.58944 397.991936zM365.838336 653.648896l-73.143296 0 0 73.046016-36.571136 0 0-73.046016-73.143296 0 0-36.52096 73.143296 0L256.123904 544.08192l36.571136 0 0 73.046016 73.143296 0L365.838336 653.648896zM676.571136 690.064384c-30.303232 0-54.856704-24.539136-54.856704-54.781952 0-30.27968 24.554496-54.784 54.856704-54.784s54.856704 24.50432 54.856704 54.784C731.42784 665.525248 706.874368 690.064384 676.571136 690.064384zM822.85568 726.587392c-30.303232 0-54.85568-24.538112-54.85568-54.782976 0-30.280704 24.553472-54.784 54.85568-54.784 30.30528 0 54.857728 24.503296 54.857728 54.784C877.714432 702.04928 853.16096 726.587392 822.85568 726.587392z" p-id="5689"></path></svg>