
<?xml version="1.0" standalone="no"?><!DOCTYPE svg PUBLIC "-//W3C//DTD SVG 1.1//EN" "http://www.w3.org/Graphics/SVG/1.1/DTD/svg11.dtd"><svg t="1490766259537" class="icon" style="" viewBox="0 0 1024 1024" version="1.1" xmlns="http://www.w3.org/2000/svg" p-id="5887" xmlns:xlink="http://www.w3.org/1999/xlink" width="200" height="200"><defs><style type="text/css"></style></defs><path d="M958.743764 966.513728H751.440347c-30.336936 0-55.017034-24.680099-55.017034-55.017035V805.169039c0-11.466146-6.880711-22.527063-17.545608-28.234041l-171.225733-85.377506-0.348947-0.192382c-1.544169-0.845251-3.448542-1.257643-5.823636-1.257643H198.629873c-30.336936 0-55.017034-24.680099-55.017035-55.017034v-17.23657c0-58.935274 47.947012-106.881263 106.882286-106.881262H489.594711c13.248745 0 25.456788-8.897647 29.688159-21.636787l34.621519-103.863532c0.997724-2.894933 1.641383-6.644327 1.641383-9.550517 0-17.270339-14.08581-31.320333-31.400151-31.320333H129.529075c-20.440541 0-40.527019-7.161097-56.561203-20.163225-16.192797-13.132088-27.179013-31.368428-30.957059-51.378158-2.252297-10.652618-2.160199-21.1149-2.078335-30.355355 0.014326-1.671059 0.029676-3.333932 0.029676-4.985548 0-1.528819 0.063445-3.045359 0.186241-4.542456-17.74106-22.6253-34.737152-49.231261-34.737152-81.794911 0-30.336936 24.680099-55.017034 55.017035-55.017034h517.708002c28.053939 0 54.977126 13.563924 72.016197 36.283368l0.128936 0.173962 309.302485 421.612386c34.938744 47.657416 54.1769 106.402355 54.1769 165.419494v191.640692c0 30.338982-24.680099 55.019081-55.017034 55.019081zM526.58416 655.259798L697.786357 740.631164c24.407899 12.869099 39.569204 37.598316 39.569204 64.537875v106.327654c0 7.634888 6.449899 14.084787 14.084786 14.084787h207.303417c7.634888 0 14.084787-6.449899 14.084786-14.084787V719.856002c0-50.377364-16.426111-100.528578-46.252417-141.213186L617.346303 157.130713c-9.354042-12.419867-24.003693-19.830651-39.210023-19.83065H60.427254c-7.633864 0-14.084787 6.449899-14.084786 14.084786 0 14.172791 5.733585 27.579125 15.671934 42.377156a54.785767 54.785767 0 0 1 32.962739-10.978029h449.157744v40.932248H94.978165c-7.633864 0-14.084787 6.414083-14.084787 14.005992 0 1.769296-0.01535 3.552919-0.030699 5.345752-0.069585 7.895831-0.135076 15.353686 1.224898 21.668509l0.116657 0.583284c4.049223 21.864984 24.393573 38.352493 47.324841 38.352493h394.616546c39.884382 0 72.332399 32.412201 72.332399 72.252581 0 7.359618-1.397836 15.655562-3.836375 22.776749l-34.519188 103.559611c-9.858532 29.686113-37.399795 49.646724-68.526723 49.646723H250.495124c-36.365232 0-65.950038 29.584806-65.950038 65.949015v17.23657c0 7.634888 6.449899 14.084787 14.084787 14.084786h302.849516c9.138124-0.001023 17.581424 2.044566 25.104771 6.081509z" p-id="5888"></path></svg>