
<?xml version="1.0" standalone="no"?><!DOCTYPE svg PUBLIC "-//W3C//DTD SVG 1.1//EN" "http://www.w3.org/Graphics/SVG/1.1/DTD/svg11.dtd"><svg t="1490766134346" class="icon" style="" viewBox="0 0 1024 1024" version="1.1" xmlns="http://www.w3.org/2000/svg" p-id="4127" xmlns:xlink="http://www.w3.org/1999/xlink" width="200" height="200"><defs><style type="text/css"></style></defs><path d="M893.5936 179.3792C841.4464 128 783.1296 102.4512 712.1408 102.4512c-67.8912 0-143.5904 53.4528-200.1408 110.1568-58.3168-56.6784-131.6864-109.8752-201.9072-109.8752-68.7104 0-129.2544 20.2752-179.6608 70.016-105.0624 103.4752-105.0624 271.2576 0 374.7584 29.9776 29.6448 321.1264 349.44 321.1264 349.44 16.6144 16.3584 38.3744 24.5504 60.1088 24.5504s43.4688-8.192 60.032-24.5504c0 0 318.4896-339.4048 321.8944-342.8096C998.6304 450.6368 998.6304 282.8288 893.5936 179.3792zM852.6336 514.432c-3.3024 3.3024-176.7424 188.0576-322.1504 342.9376-6.8608 6.4512-14.6688 7.3984-18.816 7.3984-4.1216 0-11.8272-0.9472-18.6624-7.1424C457.6 818.6624 200.8576 536.832 171.008 507.4176c-39.9616-39.3728-61.952-91.6736-61.952-147.3024 0.0256-55.6288 21.9904-107.8784 61.952-147.2256 38.8608-38.3488 84.352-53.4528 139.0848-53.4528 28.1344 0 79.0528 13.3376 161.6128 93.6192l40.9344 39.7568 40.32-40.3968c57.344-57.5232 118.3488-93.2096 159.2064-93.2096 55.0912 0 98.5088 18.6112 140.9024 60.288 39.9104 39.3216 61.8496 91.5968 61.8496 147.2C914.944 422.3488 892.928 474.6496 852.6336 514.432z" p-id="4128"></path></svg>