
<?xml version="1.0" standalone="no"?><!DOCTYPE svg PUBLIC "-//W3C//DTD SVG 1.1//EN" "http://www.w3.org/Graphics/SVG/1.1/DTD/svg11.dtd"><svg t="1497164729715" class="icon" style="" viewBox="0 0 1024 1024" version="1.1" xmlns="http://www.w3.org/2000/svg" p-id="7144" xmlns:xlink="http://www.w3.org/1999/xlink" width="200" height="200"><defs><style type="text/css"></style></defs><path d="M790.869333 307.569778L723.342222 242.005333l147.797334-143.559111 67.470222 65.564445-147.740445 143.559111zM464.241778 0h95.431111v203.008h-95.431111V0zM85.333333 164.010667l67.470223-65.564445 147.797333 143.559111-67.527111 65.564445L85.333333 164.010667z m426.609778 99.640889c218.538667 0 395.747556 170.183111 395.747556 380.188444 0 209.948444-177.208889 380.16-395.747556 380.16S116.252444 853.788444 116.252444 643.84c0-210.005333 177.152-380.188444 395.690667-380.188444z m114.261333 473.344l-2.503111 2.389333a30.72 30.72 0 0 0-8.533333 21.048889c0 7.537778 2.872889 14.364444 7.452444 19.768889l4.892445 4.721777a33.336889 33.336889 0 0 0 42.126222-0.711111l3.271111-3.128889 110.848-106.382222 5.518222-5.290666c0.369778-0.455111 0.768-0.824889 1.080889-1.28a30.435556 30.435556 0 0 0 6.087111-18.204445c0-7.708444-2.986667-14.677333-7.765333-20.167111-0.369778-0.426667-0.711111-0.881778-1.109333-1.28l-1.735111-1.649778-114.517334-109.909333-0.227555-0.227556a33.649778 33.649778 0 0 0-42.979556-2.673777l-6.4 6.172444a30.435556 30.435556 0 0 0-6.741333 18.972444c0 7.936 3.128889 15.104 8.163555 20.650667l3.271112 3.128889 90.567111 86.926222-90.766223 87.125334z m-165.063111 29.980444c1.962667 0.938667 4.010667 1.706667 6.172445 2.275556a32.995556 32.995556 0 0 0 38.656-17.464889l0.768-1.905778 70.798222-175.303111 1.905778-4.750222c0.910222-2.901333 1.564444-5.916444 1.564444-9.102223 0-12.515556-7.651556-23.210667-18.631111-28.359111l-4.664889-1.735111a32.967111 32.967111 0 0 0-39.509333 16.867556l-1.137778 2.844444-70.456889 174.392889-2.247111 5.632a30.236444 30.236444 0 0 0-1.365333 8.504889c0 12.316444 7.424 22.869333 18.147555 28.103111z m-225.820444-97.137778l1.080889 1.28 1.763555 1.678222 114.488889 109.880889 0.256 0.227556a33.536 33.536 0 0 0 42.951111 2.673778l6.428445-6.144c4.181333-5.319111 6.741333-11.832889 6.741333-19.000889a30.72 30.72 0 0 0-8.163555-20.650667l-3.271112-3.128889-90.567111-86.926222 90.766223-87.096889 2.503111-2.417778c5.233778-5.603556 8.533333-12.913778 8.533333-21.048889 0-7.537778-2.872889-14.336-7.452444-19.768888l-4.892445-4.721778a33.564444 33.564444 0 0 0-20.622222-7.139556c-8.277333 0-15.729778 3.043556-21.532445 7.850667l-3.242666 3.128889-110.876445 106.382222-5.518222 5.319111c-0.341333 0.426667-0.739556 0.796444-1.080889 1.251556a30.606222 30.606222 0 0 0-6.058666 18.204444c0 7.708444 2.986667 14.677333 7.765333 20.167111z" fill="" p-id="7145"></path></svg>