
<?xml version="1.0" standalone="no"?><!DOCTYPE svg PUBLIC "-//W3C//DTD SVG 1.1//EN" "http://www.w3.org/Graphics/SVG/1.1/DTD/svg11.dtd"><svg t="1494227122720" class="icon" style="" viewBox="0 0 1024 1024" version="1.1" xmlns="http://www.w3.org/2000/svg" p-id="2375" xmlns:xlink="http://www.w3.org/1999/xlink" width="200" height="200"><defs><style type="text/css"></style></defs><path d="M336.554152 545.943067 336.554152 545.943067zM576.727187 779.898493 576.727187 779.898493zM336.554152 545.943067c-6.931876-1.909489-26.696012-23.576975-32.597419-32.072463-13.020548-18.517749-22.293749-34.07712-30.817889-55.553247l-14.331403-40.376593c-3.653203-10.977006-7.493671-31.785937-14.800078-39.231513-11.70867-11.93175-33.346479-11.550057-42.807968 4.7727-8.149611 14.031575-13.956873 29.686113-21.170159 44.194548-3.747347 7.445576-5.994528 15.46318-9.367345 23.100114-11.521404 25.963325-24.073278 72.353888-29.318746 101.085256-2.716878 14.413268-5.994528 33.694403-5.901407 48.394197 0.094144 14.3181-0.468674 29.494755 0.561795 42.954301 2.060939 25.581632 6.837732 50.495044 12.833283 74.54888 5.901407 23.768333 22.575158 64.144926 35.220153 83.616396 1.592264 2.38635 2.904143 4.581342 4.402263 7.063883 6.463202 11.072173 14.144138 21.858844 22.387893 31.499411 9.647731 11.263531 14.800078 17.277502 25.572422 28.254507 8.898671 9.06854 18.73469 17.372669 28.756951 25.103748 14.331403 10.881838 24.541953 16.990976 39.154765 25.868157 16.205077 9.927093 33.627888 17.086144 51.519374 23.672142 5.339612 1.909489 10.6782 3.817955 16.017812 5.345752 2.997264 0.858554 4.965082 1.718131 8.242731 2.577708 3.278673 0.763386 5.714142 1.431605 8.898671 2.38635l17.422811 4.009314c1.499144 0.286526 3.091408 0.573051 4.589528 0.859577l-0.843204-0.476861c-1.12359-0.573051-2.15406-1.24127-3.184529-1.909489l-3.184529-2.099824c-1.12359-0.763386-2.060939-1.336438-3.091408-2.004657-1.030469-0.763386-2.060939-1.431605-2.997264-2.194992-0.561795-0.381693-0.936325-0.668219-1.404999-1.049912-6.931876-5.345752-16.766872-13.268188-21.825075-19.759019l-3.840468-4.199649c-2.622734-2.672876-4.776793-5.822612-7.024997-8.877181-1.499144-2.004657-2.809999-3.817955-4.309142-6.109138-0.74906-1.14508-1.311879-2.004657-2.060939-3.149736-0.655939-1.14508-1.311879-2.004657-1.966795-3.149736-2.716878-4.486174-4.776793-9.06854-7.306406-13.554714-1.311879-2.38635-2.060939-4.7727-3.184529-7.254218-1.217734-2.481518-1.966795-4.867868-2.997264-7.540743-2.904143-7.922437-5.245468-16.036231-6.931876-24.626887-1.217734-5.91778-2.435469-12.218276-2.809999-18.231223-0.094144-3.054569-0.561795-6.585999-0.74906-9.640568-0.37453-6.872524 0-14.126742 0-20.999266 0-3.341095 0.468674-6.967692 0.561795-10.213619 0-5.059226 1.311879-13.745049 2.248204-18.612916 1.12359-5.631254 2.435469-11.453866 4.214998-16.799618 0.468674-1.336438 0.74906-2.481518 1.217734-3.913123 1.779529-5.154393 4.121877-9.735735 6.182816-14.699794 3.371794-8.017604 8.80555-16.226566 12.833283-23.958668l5.058203-10.595312c0.561795-1.431605 1.030469-2.38635 1.499144-3.722788 4.121877-11.645225 5.714142-15.941064 7.493671-29.208229 0.094144-1.049912 0.37453-3.722788 0.468674-4.964058 0.187265-7.254218-2.060939-12.218276 1.404999-18.422581 2.060939-3.722788 7.868201-7.922437 14.051017-6.204305 7.493671 2.004657 15.830547 9.927093 21.076014 15.272845l3.653203 4.199649c0.561795 0.668219 0.74906 0.859577 1.217734 1.526773 12.177344 16.70445 16.579607 33.027208 19.764136 53.739948 0.187265 1.431605 0.561795 3.53143 0.655939 4.7727l1.686409-2.672876c3.184529-5.440919 8.149611-14.986319 10.210549-20.808932 0.37453-1.14508 0.843204-1.909489 1.217734-3.149736l5.526877-16.417925c4.402263-14.604626 6.557346-30.162974 8.149611-45.340651 0.655939-6.585999 0.655939-10.595312 0.843204-16.799618l0.281409-8.877181c0-8.017604-0.936325-25.868157-2.060939-33.504068-0.74906-5.249561-2.341325-10.69048-0.936325-15.654538 1.217734-4.391007 4.683672-7.540743 8.80555-8.972349 6.557346-2.194992 13.956873 2.291183 19.85828 4.867868 6.744611 2.959402 13.582343 7.254218 19.764136 11.358699 10.30367 7.063883 20.045545 15.46318 28.195156 24.818245 0.74906 0.858554 1.404999 1.336438 2.15406 2.291183 0.74906 0.954745 1.217734 1.526773 1.966795 2.38635l5.807263 7.349385c7.212262 8.877181 14.705933 23.003923 19.48375 33.790594 0.468674 1.049912 0.74906 2.099824 1.217734 3.149736 1.779529 3.62762 2.997264 7.540743 4.309142 11.358699l5.432733 18.804275c2.435469 8.590656 4.214998 21.667485 5.058203 30.449499 1.592264 16.799618 1.217734 34.935674-0.37453 51.163263-0.74906 9.067516-2.622734 18.231223-4.027733 27.013237-0.187265 1.049912-0.74906 2.768043-0.74906 3.913123 3.278673-0.859577 12.833283-11.358699 15.736403-15.46318 6.275937-8.972349 10.772344-16.417925 14.800078-26.821879l6.931876-19.472494c1.779529-5.345752 3.653203-15.368012 7.119141-18.995633 5.714142-5.727445 16.111956-5.536087 20.701484 2.291183 3.934612 6.777357 6.744611 14.413268 10.210549 21.381983 1.779529 3.62762 2.904143 7.445576 4.589528 11.168364 5.526877 12.504802 11.615549 34.935674 14.144138 48.776913 1.217734 6.967692 2.809999 16.322757 2.809999 23.385617 0 6.872524 0.187265 14.222933-0.281409 20.713764-1.030469 12.408611-3.278673 24.435529-6.181793 35.985586-2.809999 11.550057-10.865465 31.022551-17.048281 40.376593-0.74906 1.14508-1.404999 2.194992-2.060939 3.436262-3.091408 5.345752-6.837732 10.500145-10.865465 15.176654-4.589528 5.440919-7.119141 8.399297-12.270465 13.649881-3.184529 3.149736-6.463202 6.204305-9.92914 8.972349 15.923668-5.440919 30.443359-11.453866 45.056172-18.99461 2.622734-1.24127 4.776793-2.38635 7.119141-3.62762l14.051017-8.017604c2.341325-1.24127 4.496407-2.576685 6.744611-4.009314l6.557346-4.199649c2.248204-1.718131 4.214998-2.863211 6.370081-4.295839 2.15406-1.431605 4.214998-2.959402 6.275937-4.486174 1.030469-0.763386 1.873674-1.431605 2.904143-2.291183 14.331403-10.881838 34.658358-27.39493 45.243437-40.853453l7.77508-8.590656c5.432733-5.536087 10.023284-12.122085 14.612813-18.327414 3.184529-4.391007 5.901407-8.113795 8.898671-12.695137 1.592264-2.38635 2.809999-4.199649 4.309142-6.490831 1.499144-2.481518 2.622734-4.295839 4.121877-6.682189 5.526877-9.163707 9.92914-18.804275 15.081487-28.158317 2.716878-4.867868 4.309142-9.735735 6.650467-14.891152 2.435469-5.249561 4.121877-10.118452 6.088672-15.558347 6.088672-16.417925 10.959609-33.217543 14.518668-51.067073 2.341325-12.218276 4.870938-25.390273 5.619998-37.703717 0.37453-6.299473 1.404999-13.649881 1.686409-20.045545 0.74906-14.222933 0-29.208229 0-43.526329 0-6.967692-1.030469-14.413268-1.12359-21.095457-0.094144-10.500145-2.809999-28.444842-4.776793-38.563294-2.341325-11.550057-4.965082-23.76731-8.617261-34.744315-0.936325-2.863211-1.686409-5.249561-2.622734-8.208962-3.653203-10.595312-8.524141-20.23588-12.739139-30.544667-6.931876-16.60826-18.171871-33.599236-26.602891-49.5403l-10.490935-21.954011c-1.217734-2.863211-2.15406-4.867868-3.184529-7.635911-8.429996-24.150026-11.70867-33.122375-15.361873-60.422138-0.281409-2.291183-0.936325-7.827269-0.936325-10.500145-0.468674-14.891152 4.121877-25.103748-2.997264-38.181601-4.214998-7.635911-16.299221-16.22759-29.03836-12.790304-15.549138 4.199649-32.784684 20.713764-43.651173 31.69077l-7.587815 8.782014c-1.12359 1.431605-1.499144 1.718131-2.622734 3.149736-25.197892 34.55398-34.376948 68.344574-40.841174 111.202685-0.468674 3.054569-1.311879 7.349385-1.311879 10.022261l-3.559059-5.631254c-6.650467-11.263531-16.861016-31.022551-21.076014-43.049468-0.843204-2.291183-1.779529-4.009314-2.716878-6.490831l-11.334139-34.172287c-9.18008-30.259164-13.676487-62.330604-16.861016-93.830015-1.404999-13.649881-1.404999-21.954011-1.779529-34.840506l-0.561795-18.327414c0-16.609283 1.966795-53.549613 4.214998-69.489654 1.592264-10.786671 4.776793-22.145369 1.966795-32.358989-2.52859-9.163707-9.647731-15.559371-18.266016-18.517749-13.582343-4.581342-28.851095 4.7727-41.12156 10.118452-14.051017 6.109138-28.195156 14.891152-40.934295 23.481807-21.263279 14.508435-41.590234 31.881105-58.45125 51.448766-1.592264 1.813299-2.904143 2.768043-4.402263 4.677533-1.499144 2.004657-2.622734 3.054569-4.121877 4.964058l-11.990079 15.272845c-14.987343 18.422581-30.443359 47.63081-40.278355 69.967538-0.936325 2.099824-1.592264 4.199649-2.622734 6.490831-3.559059 7.445576-6.275937 15.654538-8.80555 23.576975l-11.428284 38.84982c-4.965082 17.84953-8.617261 44.862767-10.397814 63.190181-3.278673 34.745339-2.435469 72.257697 0.655939 105.856933 1.779529 18.709107 5.526877 37.703717 8.524141 55.935963C335.336418 540.025287 336.460008 543.461549 336.554152 545.943067L336.554152 545.943067z" p-id="2376"></path></svg>