
<?xml version="1.0" standalone="no"?><!DOCTYPE svg PUBLIC "-//W3C//DTD SVG 1.1//EN" "http://www.w3.org/Graphics/SVG/1.1/DTD/svg11.dtd"><svg t="1497164558238" class="icon" style="" viewBox="0 0 1024 1024" version="1.1" xmlns="http://www.w3.org/2000/svg" p-id="5015" xmlns:xlink="http://www.w3.org/1999/xlink" width="200" height="200"><defs><style type="text/css"></style></defs><path d="M957.138996 60.649247l0-8.661651C957.138996 23.393534 933.748411 0 905.154349 0L118.848599 0c-28.594062 0-51.990544 23.393534-51.990544 51.987596l0 8.661651c0 28.594062 23.393534 51.987596 51.990544 51.987596l20.088663 0c10.318509 0 9.501873 9.631591 9.501873 14.554994 0 57.748272 23.676556 124.503127 41.82239 167.153947 36.391907 85.531594 119.243636 155.700402 187.254402 205.246933 12.41464 9.04491 9.437013 17.441228 2.228798 23.216645-65.964753 52.842558-152.693293 120.378672-189.480251 206.84188-17.862813 41.978642-41.079458 107.312492-41.804701 164.423964-0.073704 5.857965 2.27302 17.282028-11.73067 17.282028l-17.877554 0c-28.594062 0-51.990544 23.396482-51.990544 51.987596l0 8.667547c0 28.591114 23.393534 51.987596 51.990544 51.987596l786.308698 0c28.594062 0 51.984647-23.396482 51.984647-51.987596l0-8.667547c0-28.591114-23.390585-51.987596-51.984647-51.987596l-11.250123 0c-20.637018 0-18.649968-15.45123-18.437701-23.461341 1.438695-53.343742-14.245438-114.013626-37.19675-159.59785-51.055982-101.383771-131.57278-165.865607-181.160585-203.171439-10.760731-8.092659-11.845648-18.110457 0-26.256183 51.126737-35.168426 130.104604-101.787667 181.160585-203.174387 24.437177-48.538265 40.640184-114.187567 36.695565-169.875085-0.309555-4.463492-0.622059-13.184106 11.07913-13.184106l19.109878 0C933.751359 112.636842 957.138996 89.246257 957.138996 60.649247zM796.798214 274.814319c-47.503466 94.334756-123.724817 161.797166-190.02271 202.449143-3.991789 2.449909-11.6039 8.493607-11.6039 25.359947l0 20.159418c0 17.88345 8.113296 21.807431 12.379262 24.428333 66.291997 40.702095 141.932563 108.008254 189.2444 201.971543 21.85755 43.417337 33.213806 95.909065 32.090562 137.684285-0.229955 8.688184 3.104397 24.493192-19.496085 24.493192L214.114969 911.36018c-19.899981 0-19.089241-9.93525-19.042071-15.368682 0.344933-38.016335 13.452387-90.676107 37.910201-148.159046 42.465086-99.806514 131.57278-162.112618 190.892413-199.22682 2.641538-1.65391 7.750674-4.619744 7.750674-20.407062l0-30.177216c0-16.315037-7.830274-22.665342-11.960626-25.265606-59.251826-37.406069-145.213849-99.110751-186.682462-196.585282-24.714303-58.08436-37.836498-111.239421-37.916098-149.3442-0.005896-4.994158 0.622059-14.186476 11.677604-14.186476l609.033768 0c12.28787 0 12.166996 9.286658 12.570892 14.236594C831.836921 170.051973 820.48951 227.764867 796.798214 274.814319z" p-id="5016"></path><path d="M499.83153 578.426123l-202.679098 253.628947c-6.69229 8.378629-3.396263 15.230119 7.323193 15.230119l415.042854 0c10.722405 0 14.021379-6.85149 7.323193-15.230119l-202.673202-253.628947C517.473232 570.047494 506.52382 570.047494 499.83153 578.426123z" p-id="5017"></path><path d="M498.195309 460.556323c7.594422 7.570837 20.014959 7.570837 27.603485 0l101.935075-101.678586c7.588526-7.570837 5.032484-13.767839-5.695817-13.767839L401.950155 345.109898c-10.722405 0-13.284343 6.197002-5.695817 13.767839L498.195309 460.556323z" p-id="5018"></path></svg>