
<?xml version="1.0" standalone="no"?><!DOCTYPE svg PUBLIC "-//W3C//DTD SVG 1.1//EN" "http://www.w3.org/Graphics/SVG/1.1/DTD/svg11.dtd"><svg t="1497168171700" class="icon" style="" viewBox="0 0 1024 1024" version="1.1" xmlns="http://www.w3.org/2000/svg" p-id="11672" xmlns:xlink="http://www.w3.org/1999/xlink" width="200" height="200"><defs><style type="text/css"></style></defs><path d="M877.714286 73.142857q0 149.142857-60.857143 263.714286T664.571429 512q91.428571 60.571429 152.285714 175.142857T877.714286 950.857143h54.857143q8 0 13.142857 5.142857t5.142857 13.142857v36.571429q0 8-5.142857 13.142857t-13.142857 5.142857H91.428571q-8 0-13.142857-5.142857t-5.142857-13.142857v-36.571429q0-8 5.142857-13.142857t13.142857-5.142857h54.857143q0-149.142857 60.857143-263.714286T359.428571 512Q268 451.428571 207.142857 336.857143T146.285714 73.142857h-54.857143q-8 0-13.142857-5.142857t-5.142857-13.142857V18.285714q0-8 5.142857-13.142857t13.142857-5.142857h841.142858q8 0 13.142857 5.142857t5.142857 13.142857v36.571429q0 8-5.142857 13.142857t-13.142857 5.142857h-54.857143z m-73.142857 0H219.428571q0 117.714286 48.571429 219.428572h488q48.571429-101.714286 48.571429-219.428572z m-32.571429 694.857143q-30.857143-80.571429-83.142857-138T577.714286 548.571429H446.285714q-58.857143 24-111.142857 81.428571T252 768h520z" p-id="11673"></path></svg>