
<?xml version="1.0" standalone="no"?><!DOCTYPE svg PUBLIC "-//W3C//DTD SVG 1.1//EN" "http://www.w3.org/Graphics/SVG/1.1/DTD/svg11.dtd"><svg t="1497166232647" class="icon" style="" viewBox="0 0 1024 1024" version="1.1" xmlns="http://www.w3.org/2000/svg" p-id="13287" xmlns:xlink="http://www.w3.org/1999/xlink" width="200" height="200"><defs><style type="text/css"></style></defs><path d="M925.58848 214.56384l-825.37984 1.408c-8.23296 0.1536-16.02048 3.18464-21.8112 8.94976a30.72 30.72 0 0 0-9.04704 21.77024v136.8576l-0.69632 0.61952 0.69632 0.78848v368.6144a30.72 30.72 0 0 0 30.72 30.72h825.37984c16.96768 0 30.72-13.75744 30.72512-30.72V250.40384c0-16.91136-13.6704-35.76832-30.58688-35.84z m-374.72256 64.8704l124.09344 0.55808 219.77088 239.16544v165.3504l-343.86432-405.07392z m275.67616 443.4176h-127.7184L316.28288 278.37952l133.4528 0.59904 376.8064 443.87328z m68.18816-317.18912l-115.05152-125.20448 115.05152 0.51712v124.68736zM220.76416 277.95456l-3.54816 3.05152 380.27264 441.84576H470.51776l-339.72736-384.3584V277.54496l89.97376 0.4096zM130.7904 454.46656l237.22496 268.38016H130.7904V454.46656z" p-id="13288"></path></svg>