
<?xml version="1.0" standalone="no"?><!DOCTYPE svg PUBLIC "-//W3C//DTD SVG 1.1//EN" "http://www.w3.org/Graphics/SVG/1.1/DTD/svg11.dtd"><svg t="1490856280088" class="icon" style="" viewBox="0 0 1024 1024" version="1.1" xmlns="http://www.w3.org/2000/svg" p-id="2360" xmlns:xlink="http://www.w3.org/1999/xlink" width="200" height="200"><defs><style type="text/css"></style></defs><path d="M601.088014 830.588989 420.884816 830.588989c-13.956873 0-25.2685 11.319813-25.2685 25.276686 0 13.95892 11.319813 25.270547 25.2685 25.270547l180.203198 0c13.948687 0 25.285896-11.311627 25.285896-25.270547C626.37391 841.908802 615.036701 830.588989 601.088014 830.588989L601.088014 830.588989zM601.088014 830.588989" p-id="2361"></path><path d="M464.582037 964.854948c3.423983 22.690792 22.805402 40.147372 46.467311 40.147372 23.636327 0 43.049468-17.455557 46.467311-40.147372 30.9325-1.823532 55.522548-27.251667 55.522548-58.640562L408.934646 906.214387C408.934646 937.628864 433.592232 963.065186 464.582037 964.854948L464.582037 964.854948zM464.582037 964.854948" p-id="2362"></path><path d="M511.049349 165.410284c18.634406 0 33.703613-15.09479 33.703613-33.703613l0-78.395488c0-18.619056-15.069207-33.703613-33.703613-33.703613-18.627243 0-33.695427 15.084557-33.695427 33.703613l0 78.395488C477.353922 150.315494 492.421083 165.410284 511.049349 165.410284L511.049349 165.410284zM511.049349 165.410284" p-id="2363"></path><path d="M289.903669 214.506469c6.617721 9.089006 16.884552 13.905708 27.325345 13.905708 6.842849 0 13.782911-2.089591 19.770276-6.434549 15.043624-10.929934 18.403139-32.002878 7.473205-47.055712l-46.076408-63.452147c-10.963703-15.035438-31.994692-18.425651-47.089481-7.471159-15.043624 10.920724-18.402115 32.002878-7.471159 47.055712L289.903669 214.506469 289.903669 214.506469zM289.903669 214.506469" p-id="2364"></path><path d="M207.834512 327.550081l-74.580602-24.257473c-17.872043-5.756097-36.71418 3.929496-42.478464 21.644973-5.764284 17.680684 3.91517 36.705993 21.61939 42.461067l74.580602 24.258497c3.484358 1.118474 6.967692 1.666966 10.426467 1.666966 14.213723 0 27.408233-9.055237 32.051997-23.302729C235.218186 352.330464 225.538733 333.306178 207.834512 327.550081L207.834512 327.550081zM207.834512 327.550081" p-id="2365"></path><path d="M909.678278 555.61331l-74.564229-24.225751c-17.714454-5.713119-36.70804 3.948939-42.461067 21.63781-5.755074 17.706267 3.946892 36.71418 21.644973 42.469254l74.589812 24.223704c3.449565 1.118474 6.931876 1.657756 10.390651 1.657756 14.213723 0 27.408233-9.063423 32.06223-23.296589C937.086511 580.36811 927.390685 561.366338 909.678278 555.61331L909.678278 555.61331zM909.678278 555.61331" p-id="2366"></path><path d="M187.001021 531.386536l-74.606185 24.191982c-17.704221 5.738701-27.417443 24.737404-21.644973 42.452881 4.602831 14.247492 17.822924 23.310915 32.036647 23.310915 3.433192 0 6.957459-0.537236 10.407024-1.657756l74.597999-24.189935c17.714454-5.738701 27.425629-24.74866 21.661346-42.452881C223.731574 535.352871 204.864878 525.673417 187.001021 531.386536L187.001021 531.386536zM187.001021 531.386536" p-id="2367"></path><path d="M824.713164 393.322064c3.458775 0 6.942109-0.547469 10.400884-1.666966l74.564229-24.215518c17.712407-5.764284 27.408233-24.772196 21.653159-42.469254-5.764284-17.698081-24.845874-27.360138-42.443671-21.63781l-74.589812 24.217564c-17.698081 5.756097-27.400047 24.772196-21.644973 42.469254C797.287535 384.250454 810.499441 393.322064 824.713164 393.322064L824.713164 393.322064zM824.713164 393.322064" p-id="2368"></path><path d="M723.720006 111.469767l-46.076408 63.452147c-10.93198 15.052834-7.572466 36.125779 7.471159 47.055712 5.987365 4.345981 12.929474 6.434549 19.763113 6.434549 10.440793 0 20.716834-4.817726 27.317159-13.905708l46.076408-63.452147c10.92277-15.052834 7.572466-36.133965-7.471159-47.055712C755.665579 93.010347 734.674499 96.394421 723.720006 111.469767L723.720006 111.469767zM723.720006 111.469767" p-id="2369"></path><path d="M511.015579 219.314984c-134.457318 0-243.446591 108.989273-243.446591 243.438405 0 56.725956 19.506263 108.806101 52.089355 150.148695 28.563546 36.232203 55.607482 75.791174 79.043241 115.589598l0 80.866772 223.251643 0 0-78.718853c23.221888-38.71986 53.241598-83.289961 80.370469-117.704772 32.616862-41.35078 52.121078-93.422739 52.121078-150.182464C754.444774 328.304258 645.455501 219.314984 511.015579 219.314984L511.015579 219.314984zM468.37134 329.430918c-49.460482 0-89.673345 40.223097-89.673345 89.667206 0 7.670703-6.220678 13.899568-13.907755 13.899568-7.67889 0-13.899568-6.228865-13.899568-13.899568 0-64.770166 52.696176-117.464295 117.481691-117.464295 7.664563 0 13.891382 6.218632 13.891382 13.899568C482.262722 323.2041 476.035904 329.430918 468.37134 329.430918L468.37134 329.430918zM468.37134 329.430918" p-id="2370"></path></svg>