
<?xml version="1.0" standalone="no"?><!DOCTYPE svg PUBLIC "-//W3C//DTD SVG 1.1//EN" "http://www.w3.org/Graphics/SVG/1.1/DTD/svg11.dtd"><svg t="1490961175667" class="icon" style="" viewBox="0 0 1024 1024" version="1.1" xmlns="http://www.w3.org/2000/svg" p-id="3141" xmlns:xlink="http://www.w3.org/1999/xlink" width="200" height="200"><defs><style type="text/css"></style></defs><path d="M522.766205 498.146481m-55.177694 0a53.921 53.921 0 1 0 110.355387 0 53.921 53.921 0 1 0-110.355387 0Z" p-id="3142"></path><path d="M874.757954 461.809901c-17.229406-165.945473-146.970306-298.455439-311.618227-319.931566l0-78.426187-80.748069 0 0 76.940346C311.401286 156.212808 175.011966 291.369044 157.315932 461.809901L67.88511 461.809901l0 80.748069 90.046852 0c19.980054 167.894871 155.275459 300.380278 324.46072 316.033793l0 93.090165 80.748069 0 0-94.576005c162.861228-21.243837 291.555286-151.129023 311.002197-314.548976l81.971943 0 0-80.748069L874.757954 461.808878zM803.37416 542.55797c-18.519796 124.621299-116.176976 223.404116-240.23341 243.632833L563.140751 647.529743l-80.748069 0 0 140.53064C351.990726 773.019829 247.885693 671.65214 228.700749 542.55797l143.335523 0 0-80.748069L227.947596 461.809901c17.052374-131.651412 122.235972-235.636718 254.445086-250.886027l0 137.839345 80.748069 0L563.140751 212.793454c125.836987 20.519336 224.517473 121.863489 240.986563 249.015424L670.804842 461.808878l0 80.748069L803.37416 542.556946z" p-id="3143"></path></svg>