
<?xml version="1.0" standalone="no"?><!DOCTYPE svg PUBLIC "-//W3C//DTD SVG 1.1//EN" "http://www.w3.org/Graphics/SVG/1.1/DTD/svg11.dtd"><svg t="1497153739001" class="icon" style="" viewBox="0 0 1000 1000" version="1.1" xmlns="http://www.w3.org/2000/svg" p-id="3912" xmlns:xlink="http://www.w3.org/1999/xlink" width="200" height="200"><defs><style type="text/css"></style></defs><path d="M721.9089 252.7996c0 0-175.4154 8.4423-237.6678 11.2394-38.4765 1.7568-59.4032-30.8911-25.4618-64.6322 26.0824-25.8615 35.5794-33.1635 31.1262-81.4548-5.1058-55.2995-60.7963-73.2753-106.5053-72.7607-47.8116 0.5646-100.1483 25.7016-115.5635 71.2967-10.1376 29.9007-9.8427 60.0453 16.3796 79.2443 14.3069 10.4909 45.9728 25.9634 10.4534 54.2692-19.1678 15.2886-212.1731-2.8471-212.1731-2.8471s-8.5026 164.6684-2.4524 211.5756c3.4588 26.9537 37.0424 39.5672 59.0474 10.4129 33.9434-44.9285 127.7877-15.6144 132.5357 72.5868 4.9918 92.5343-94.373 106.7946-115.5835 70.7021-19.7984-33.7311-76.3554-42.1224-78.8059 0.8984-3.7936 66.9846 27.7693 280.1241 27.7693 280.1241s126.8613 29.7808 184.038 20.622c26.5611-4.3011 38.7544-49.8462 14.135-71.2347-22.6456-19.6517-27.3946-124.7094 90.7933-112.6416 92.4722 9.4426 77.027 89.6052 53.497 104.2493-22.6336 14.0365-21.5573 57.7828 25.4828 70.2144 64.3651 17.0564 259.6109-25.003 259.6109-25.003s-25.7966-157.2564-17.1641-208.2148c9.2231-54.562 72.2071-21.6403 80.0761-11.2194 50.9346 67.4293 156.5634 30.5703 156.5634-82.616 0-164.8392-150.8391-136.8152-165.034-97.2181-15.689 43.6044-67.61 32.427-73.2524 5.6352C700.4925 423.4459 721.9089 252.7996 721.9089 252.7996z" p-id="3913"></path></svg>