
<?xml version="1.0" standalone="no"?><!DOCTYPE svg PUBLIC "-//W3C//DTD SVG 1.1//EN" "http://www.w3.org/Graphics/SVG/1.1/DTD/svg11.dtd"><svg t="1494839249916" class="icon" style="" viewBox="0 0 1024 1024" version="1.1" xmlns="http://www.w3.org/2000/svg" p-id="2421" xmlns:xlink="http://www.w3.org/1999/xlink" width="200" height="200"><defs><style type="text/css"></style></defs><path d="M744.2944 707.90144c-4.80256 13.11232-13.86496 31.88224-32.86528 52.42368-32.90112 37.02272-83.65056 51.06688-115.04128 57.31328-15.38048 3.06176-39.24992 5.15072-64.89088 5.74976v0.09728c-3.10784 0.0512-6.21056 0.03072-9.3184 0.03072-5.55008 0.0512-11.11552 0.06144-16.67072-0.03072v-0.22528c-25.64608-0.82944-49.51552-3.36896-64.88576-6.41024-31.39584-6.2208-82.1504-20.20864-115.05152-57.05728-19.00544-20.4544-26.20928-33.19296-32.8704-52.10624-6.65088-18.90304-8.1152-22.58944-8.1152-47.93344 0-68.49024 51.91168-101.29408 110.45376-101.6064 9.86624 0.27136 239.34976 0.10752 246.91712 0 58.5472 0.31232 110.45376 32.80896 110.45376 101.6064 0 25.46176-3.31264 35.03616-8.1152 48.14848z m39.02976-240.50688c6.60992 10.10176 27.5968 5.6064 27.5968 5.6064s-15.27296 44.70784-51.51232 41.08288a108.96896 108.96896 0 0 1-39.5008-11.91424c0.01024 11.21792 0.03072 25.90208 0.10752 40.73984 1.152 12.82048 3.70176 28.66688 5.21216 37.47328-20.6592-21.39136-50.92864-29.23008-83.2768-29.39904-5.66784-0.10752-241.72544 0.1024-246.91712 0-32.0256 0.15872-61.99808 7.92064-82.65216 28.91264 1.67936-7.28576 4.00896-19.2768 4.6848-32.09216-0.19456-5.66784-0.16384-27.0848-0.1024-43.90912a108.86656 108.86656 0 0 1-35.712 10.0096c-36.23424 3.6096-51.51744-40.99584-51.51744-40.99584s20.98176 4.48 27.59168-5.58592c13.93664-21.2224 39.41888-26.35776 57.71264-27.08992-104.88832-51.91168-94.43328-155.54048-94.43328-155.54048s4.28544-33.49504 16.55808-35.4048c14.46912-2.24256 18.45248 12.41088 22.07232 27.9552 11.36128 48.7424 64.65024 69.99552 103.42912 79.11424 23.61856-27.9552 57.74336-46.05952 106.11712-46.05952h10.32704c-10.26048-22.62528 12.72832-44.27776 11.136-39.168-11.10528 35.51744 24.43264 37.42208 23.71072 34.9952-14.49984-48.05632 20.02432-59.5456 18.24256-57.09824-18.75968 25.65632 5.93408 49.86368 20.95616 61.27616h11.29984c47.23712 0 82.28352 17.94048 107.27936 46.81728 38.90176-8.7296 94.48448-29.77792 106.112-79.6672 3.6096-15.53408 7.58784-30.16704 22.0416-27.92448 12.25216 1.90464 16.53248 35.37408 16.53248 35.37408s10.42432 103.33184-94.04416 155.23328c18.39104 0.256 46.1824 4.70528 60.94848 27.25888z m-105.84064 114.02752c-11.7504-4.02944-24.17152 0.07168-31.73376 9.12896a3.44576 3.44576 0 0 0 0.32768 6.3744c1.5104 0.512 3.08224-0.12288 3.93216-1.40288 5.79072-7.61856 15.86176-11.15136 25.35424-7.9104 11.8784 4.07552 18.18624 17.08032 14.09536 29.06624a22.85056 22.85056 0 0 1-2.14016 4.48l0.09216 0.06656c-0.13824 0.22016-0.31232 0.41984-0.39936 0.67072a3.44576 3.44576 0 0 0 2.12992 4.3776 3.44576 3.44576 0 0 0 4.5312-3.52256c0.70144-1.29024 1.4336-2.54464 1.92512-3.97824 5.28384-15.39072-2.83648-32.12288-18.11456-37.3504z m-37.10464-105.85088c-9.53856-6.87616-21.80096-13.54752-43.90912-12.88192-19.77856 0.58368-31.45216 13.21984-36.352 18.5344-4.8896 5.30944 3.11808 12.46208 9.12896 5.4016 8.56576-6.24128 15.7184-11.58656 33.63328-10.76736 16.40448 0.74752 25.74336 4.0448 32.03072 7.08096 5.76512 2.78016 13.22496-1.792 5.46816-7.36768z m-173.85984 6.75328c-4.80256-5.49376-19.61984-19.03616-38.9888-19.6352-21.65248-0.68608-28.54912 6.89664-37.89312 14.00832-7.58272 5.77024-0.256 10.5728 5.3504 7.62368 6.20032-3.2768 10.22464-8.41216 26.04032-8.54528 17.5616-0.13312 29.87008 5.89312 38.26176 12.34944 4.81792 2.22208 12.01664-0.29696 7.22944-5.80096z m-78.9504 111.488c-7.07072-9.49248-19.31776-14.21824-31.30368-10.73152-15.52384 4.50048-24.46848 20.82816-20.00384 36.46976 0.62464 2.1504 1.55648 4.09088 2.5856 5.97504 0.4096 1.45408 1.67936 2.5344 3.24608 2.5344a3.4304 3.4304 0 0 0 2.2784-5.98016 21.72416 21.72416 0 0 1-1.86368-4.34176c-3.4816-12.17024 3.4816-24.86784 15.55456-28.38016 10.04544-2.91328 20.39296 1.54112 25.61024 10.112l0.11264-0.07168c0.62464 0.64512 1.4848 1.04448 2.45248 1.04448a3.44064 3.44064 0 0 0 3.42016-3.45088 3.42016 3.42016 0 0 0-2.08896-3.17952z" p-id="2422"></path></svg>