<?xml version="1.0" standalone="no"?><!DOCTYPE svg PUBLIC "-//W3C//DTD SVG 1.1//EN" "http://www.w3.org/Graphics/SVG/1.1/DTD/svg11.dtd"><svg t="1490345226622" class="icon" style="" viewBox="0 0 1024 1024" version="1.1" xmlns="http://www.w3.org/2000/svg" p-id="2569" xmlns:xlink="http://www.w3.org/1999/xlink" width="200" height="200"><defs><style type="text/css"></style></defs><path d="M936.547 270.585c-0.011-3.118-2.233-6.938-4.939-8.487L515.201 23.623c-2.706-1.549-7.125-1.534-9.819 0.035L90.654 265.039c-2.695 1.568-4.891 5.403-4.88 8.521l1.678 479.857c0.011 3.118 2.234 6.937 4.939 8.486l416.406 238.473c2.706 1.55 7.125 1.534 9.819-0.034l414.73-241.381c2.694-1.568 4.891-5.402 4.88-8.521L936.547 270.585zM814.381 661.262c0 3.118-0.667 8.132-1.482 11.141l-7.363 13.08c-2.15 2.258-6.091 5.429-8.756 7.046L537.571 849.775c-2.665 1.617-7.191 3.945-10.058 5.173 0 0-3.76 1.61-8.534 1.61-3.945 0-6.206-0.788-6.206-0.788-2.944-1.026-7.649-2.979-10.455-4.34l-111.779-54.191c-2.806-1.36-3.989-4.77-2.628-7.575l18.175-37.488c1.36-2.806 4.769-3.988 7.575-2.628l98.803 47.9c2.806 1.36 7.283 1.15 9.948-0.467l234.122-142.028c2.665-1.617 4.847-5.491 4.847-8.609L761.381 377.561c0-3.118-2.196-6.967-4.882-8.553l-232.783-137.49c-2.686-1.586-7.091-1.607-9.791-0.047L275.533 369.223c-2.7 1.56-4.909 5.388-4.909 8.506l0 274.058c0 3.118 1.895 7.377 4.211 9.465 0 0 47.7 42.992 70.326 42.073 20.602-0.809 39.447-19.069 39.447-19.069 2.239-2.17 4.071-6.496 4.071-9.614l0-298.15c0-3.118 2.551-5.669 5.669-5.669l41.661 0c3.118 0 5.669 2.551 5.669 5.669l0 307.43c0 3.118-0.381 8.191-0.847 11.274 0 0-0.729 4.828-3.678 9.204-1.367 2.028-34.115 49.695-89.916 51.885-42.427 1.689-84.12-22.849-123.863-72.864-3.725-4.688-4.792-10.899-4.792-10.899-0.528-3.072-0.96-8.138-0.96-11.256L217.622 362.435c0-3.118 0.682-8.128 1.514-11.133l7.755-13.437c2.185-2.225 6.182-5.321 8.881-6.881l265.039-153.149c2.7-1.56 7.38-3.469 10.401-4.242l15.764 0.075c3.014 0.802 7.675 2.756 10.36 4.342l259.137 153.055c2.686 1.586 6.657 4.716 8.826 6.955l7.579 13.278c0.825 3.007 1.5 8.019 1.5 11.137L814.378 661.262zM648.051 568.998c-6.746-4.373-23.514-9.932-50.309-16.678-36.092-9.111-61.109-16.994-75.053-23.65-13.947-6.652-24.52-15.859-31.719-27.617-7.203-11.757-10.799-24.745-10.799-38.962 0-12.941 2.961-24.924 8.886-35.955 5.921-11.027 13.987-20.186 24.197-27.479 7.658-5.647 18.09-10.433 31.309-14.354 13.211-3.918 27.385-5.878 42.516-5.878 22.783 0 42.789 3.281 60.016 9.843 17.225 6.563 29.939 15.449 38.141 26.659 8.203 11.209 15.531 39.489 15.531 39.489 0.782 3.018-1.105 5.833-4.195 6.254l-36.887 5.03c-3.09 0.421-6.396-1.664-7.347-4.633 0 0-6.794-21.212-17.274-29.599-10.484-8.381-25.291-12.577-44.432-12.577-22.604 0-38.736 3.738-48.395 11.21-9.664 7.476-14.49 16.226-14.49 26.249 0 6.383 2.004 12.124 6.014 17.225 4.008 5.29 10.297 9.664 18.867 13.125 4.922 1.824 19.412 6.015 43.473 12.577 34.814 9.296 59.102 16.91 72.865 22.832 13.762 5.926 24.561 14.539 32.402 25.838 7.834 11.305 11.756 25.338 11.756 42.107 0 16.404-4.787 31.854-14.355 46.346-9.568 14.49-23.377 25.699-41.422 33.629s-38.463 11.895-61.248 11.895c-37.73 0-66.486-7.836-86.263-23.514-19.778-15.676-36.066-64.347-36.066-64.347-0.99-2.957 0.721-5.772 3.801-6.257l37.469-5.895c3.08-0.484 6.334 1.563 7.23 4.549 0 0 8.712 29.021 21.2 39.41 12.482 10.391 29.938 15.586 52.359 15.586 22.6 0 39.373-4.602 50.309-13.807 10.938-9.203 16.406-20.004 16.406-32.4C662.543 584.131 657.709 575.381 648.051 568.998z" p-id="2570"></path></svg>