
<?xml version="1.0" standalone="no"?><!DOCTYPE svg PUBLIC "-//W3C//DTD SVG 1.1//EN" "http://www.w3.org/Graphics/SVG/1.1/DTD/svg11.dtd"><svg t="1495353485487" class="icon" style="" viewBox="0 0 1024 1024" version="1.1" xmlns="http://www.w3.org/2000/svg" p-id="7128" xmlns:xlink="http://www.w3.org/1999/xlink" width="200" height="200"><defs><style type="text/css"></style></defs><path d="M514.327273 651.636364c-51.2 0-97.745455 18.618182-132.654545 48.872727-13.963636 11.636364-32.581818 11.636364-46.545455 0-16.290909-13.963636-13.963636-39.563636 2.327273-53.527273 32.581818-27.927273 72.145455-46.545455 116.363636-58.181818L514.327273 651.636364C514.327273 651.636364 514.327273 651.636364 514.327273 651.636364zM307.2 444.509091c-41.890909 20.945455-79.127273 46.545455-114.036364 79.127273-13.963636 13.963636-13.963636 37.236364 0 51.2 13.963636 11.636364 34.909091 11.636364 46.545455 0 34.909091-32.581818 74.472727-58.181818 118.690909-76.8L307.2 444.509091zM153.6 290.909091c-41.890909 25.6-81.454545 58.181818-116.363636 93.090909-13.963636 13.963636-13.963636 37.236364 0 51.2l0 0c13.963636 11.636364 34.909091 11.636364 46.545455 0 34.909091-34.909091 74.472727-67.490909 118.690909-93.090909L153.6 290.909091zM989.090909 384C868.072727 260.654545 700.509091 186.181818 514.327273 186.181818c-69.818182 0-139.636364 11.636364-202.472727 30.254545l55.854545 55.854545c46.545455-11.636364 95.418182-18.618182 146.618182-18.618182 167.563636 0 318.836364 67.490909 428.218182 176.872727 13.963636 13.963636 34.909091 13.963636 46.545455 0C1003.054545 421.236364 1005.381818 397.963636 989.090909 384zM514.327273 395.636364c-6.981818 0-16.290909 0-23.272727 0l72.145455 72.145455c86.109091 11.636364 162.909091 48.872727 223.418182 104.727273 13.963636 11.636364 32.581818 11.636364 46.545455 0 16.290909-13.963636 16.290909-37.236364 0-51.2C749.381818 444.509091 637.672727 395.636364 514.327273 395.636364zM514.327273 791.272727c-39.563636 0-69.818182 30.254545-69.818182 69.818182s30.254545 69.818182 69.818182 69.818182 69.818182-30.254545 69.818182-69.818182S551.563636 791.272727 514.327273 791.272727zM705.163636 677.236364l-65.163636-65.163636L493.381818 465.454545l-62.836364-62.836364-114.036364-114.036364-53.527273-53.527273L223.418182 195.490909C209.454545 183.854545 188.509091 183.854545 174.545455 195.490909l0 0C160.581818 209.454545 160.581818 232.727273 174.545455 246.690909l20.945455 20.945455 0 0 51.2 51.2 0 0 139.636364 139.636364 23.272727 23.272727 0 0 276.945455 276.945455c13.963636 13.963636 34.909091 13.963636 48.872727 0 13.963636-13.963636 13.963636-34.909091 0-48.872727L705.163636 677.236364z" p-id="7129"></path></svg>