
<?xml version="1.0" standalone="no"?><!DOCTYPE svg PUBLIC "-//W3C//DTD SVG 1.1//EN" "http://www.w3.org/Graphics/SVG/1.1/DTD/svg11.dtd"><svg t="1495780820620" class="icon" style="" viewBox="0 0 1073 1024" version="1.1" xmlns="http://www.w3.org/2000/svg" p-id="2365" xmlns:xlink="http://www.w3.org/1999/xlink" width="209.5703125" height="200"><defs><style type="text/css"></style></defs><path d="M592.334347 846.499222A27.768794 27.768794 0 0 0 620.228001 874.093212H1044.326408a27.643934 27.643934 0 1 0 0-55.287868H620.228001a27.768794 27.768794 0 0 0-27.893654 27.643934z m451.992061 122.162716H418.679497a27.643934 27.643934 0 1 0 0 55.287868H1044.326408a27.643934 27.643934 0 1 0 0-55.287868zM439.506092 867.175986c0.324635-0.324635 0.549383-0.724186 0.874018-1.073794 0.699214-0.64927 1.498316-1.273569 2.122615-1.922839l447.572027-443.376742 83.456214-82.682084a182.29514 182.29514 0 0 0 0-259.708145L948.933608 53.864968a186.54037 186.54037 0 0 0-262.205339 0L155.724999 579.998709c-0.624298 0.624298-1.248597 1.398428-1.872895 2.072671s-0.77413 0.574355-1.123737 0.89899a27.469131 27.469131 0 0 0-2.996632 3.620931l-0.299664 0.324635c0 0.149832-0.224747 0.299663-0.324635 0.449495C86.128211 664.82838 30.29096 942.965815 23.948088 975.479277a27.469131 27.469131 0 0 0 8.140851 25.2716 28.143373 28.143373 0 0 0 25.870927 6.842311c31.5895-7.666385 303.508923-74.915811 378.549594-137.944981a26.794888 26.794888 0 0 0 3.046576-2.497193z m-227.644178-264.702533L623.024858 195.206131l207.916347 206.018481-411.088027 407.317265-207.94132-206.01848zM726.208901 92.946049a130.378483 130.378483 0 0 1 183.194131 0l24.747189 24.49747a127.506711 127.506711 0 0 1 0 181.496039L870.371894 362.168503l-207.916348-206.018481 63.753355-63.179001zM177.051034 646.149371l199.276057 197.428134c-60.681807 33.412452-190.111357 73.542355-288.725536 99.438253 21.975305-101.635784 57.435455-235.235647 89.449479-296.866387z" p-id="2366"></path></svg>