
<?xml version="1.0" standalone="no"?><!DOCTYPE svg PUBLIC "-//W3C//DTD SVG 1.1//EN" "http://www.w3.org/Graphics/SVG/1.1/DTD/svg11.dtd"><svg t="1497167122911" class="icon" style="" viewBox="0 0 1024 1024" version="1.1" xmlns="http://www.w3.org/2000/svg" p-id="30366" xmlns:xlink="http://www.w3.org/1999/xlink" width="200" height="200"><defs><style type="text/css"></style></defs><path d="M819.2 102.4 408.5248 102.4C352.256 102.4 307.2 147.456 307.2 203.776L307.2 614.4c0 56.32 46.08 102.4 102.4 102.4l409.6 0c56.32 0 102.4-46.08 102.4-102.4L921.6 204.8C921.6 148.48 875.52 102.4 819.2 102.4zM819.2 614.4 409.6 614.4 409.6 204.8l409.6 0L819.2 614.4zM204.8 512 102.4 512l0 307.2c0 56.32 46.08 102.4 102.4 102.4l307.2 0 0-102.4L204.8 819.2 204.8 512z" p-id="30367"></path></svg>