
<?xml version="1.0" standalone="no"?><!DOCTYPE svg PUBLIC "-//W3C//DTD SVG 1.1//EN" "http://www.w3.org/Graphics/SVG/1.1/DTD/svg11.dtd"><svg t="1505095429312" class="icon" style="" viewBox="0 0 1024 1024" version="1.1" xmlns="http://www.w3.org/2000/svg" p-id="2476" xmlns:xlink="http://www.w3.org/1999/xlink" width="200" height="200"><defs><style type="text/css"></style></defs><path d="M156.395113 460.305615l-1.91994-5.919815-1.535952-7.775757-1.087966-4.255867 0-17.471454 1.855942-6.847786 1.91994-7.295772 2.463923-7.583763 3.359895-8.511734 4.415862-8.831724 6.239805-8.831724 0-6.207806 0.607981-5.791819 0.927971-7.903753 2.687916-8.799725 2.463923-9.567701 1.951939-4.415862 2.271929-4.095872 2.911909-4.543858 3.167901-3.359895 0-21.887316 1.855942-11.263648 1.855942-13.087591 3.295897-15.647511 4.543858-16.255492 3.391894-8.991719 3.359895-9.727696 3.647886-9.119715 4.383863-9.727696 4.447861-10.655667 5.151839-10.015687 5.75982-10.655667 7.295772-10.655667 3.359895-6.07981 3.615887-5.023843 7.807756-11.263648 7.99975-11.263648 9.151714-11.551639 9.759695-11.263648 10.623668-11.071654 11.071654-11.423643 13.375582-12.319615 8.543733-7.455767 10.335677-8.063748 10.495672-7.135777 11.391644-6.847786 10.911659-6.07981 12.319615-5.023843 13.087591-6.239805 12.991594-4.255867 12.991594-4.415862 13.983563-4.415862 13.983563-3.359895 14.751539-2.751914 14.911534-2.431924 29.471079-3.967876 15.67951-0.895972 46.39855 0 15.455517 1.951939 15.519515 1.855942 15.839505 1.663948 14.687541 3.487891 15.519515 3.327896 14.591544 3.775882 15.967501 4.255867 14.623543 5.183838 13.983563 5.919815 14.911534 6.239805 13.663573 6.847786 13.215587 7.583763 12.959595 8.383738 11.231649 7.743758 5.151839 4.415862 5.471829 3.1999 10.367676 8.831724 8.767726 8.511734 8.703728 8.831724 8.543733 9.727696 7.007781 9.407706 8.31974 9.727696 5.855817 10.463673 5.887816 9.27971 6.271804 10.815662 5.151839 9.407706 8.767726 19.935377 4.319865 10.335677 3.359895 9.567701 3.359895 10.335677 3.007906 9.727696 2.175932 8.351739 2.687916 9.887691 4.767851 17.631449 3.039905 15.35952 1.951939 14.911534 1.695947 11.999625 2.687916 18.23943 0.607981 2.911909 2.143933 3.359895 5.75982 9.407706 3.711884 6.367801 3.295897 6.71979 4.223868 7.135777 3.711884 8.543733 2.399925 8.799725 2.623918 9.567701 1.983938 9.855692 0.927971 4.863848 0.767976 5.951814 0 5.183838-0.767976 5.183838 0 6.3998-1.535952 6.207806-2.783913 12.031624-3.167901 6.07981-2.303928 6.847786 0 1.663948 1.087966 2.143933 3.167901 5.023843 13.695572 20.223368 10.847661 15.199525 5.151839 10.207681 7.007781 11.103653 6.07981 12.15962 7.007781 13.087591 7.007781 14.623543 7.871754 16.575482 4.415862 10.175682 4.063873 9.855692 3.551889 10.527671 3.455892 9.375707 2.623918 9.91969 2.687916 9.27971 3.391894 18.111434 2.687916 18.527421 1.855942 16.383488 0 23.167276-1.215962 8.223743-1.759945 14.111559-2.463923 12.767601-3.775882 11.551639-1.375957 4.735852-2.623918 5.599825-2.23993 3.967876-2.943908 4.895847-2.623918 3.039905-3.295897 3.967876-2.911909 3.167901-3.167901 2.751914-3.775882 1.663948-3.391894 1.663948-2.783913 0.927971-4.223868 0-2.719915-0.927971-5.183838-2.527921-2.399925-1.695947-2.463923-1.855942-2.719915-2.431924-2.719915-2.719915-4.543858-4.991844-5.375832-7.167776-4.223868-7.295772-4.223868-5.919815-4.127871-6.847786-5.791819-12.15962-6.527796-12.671604-0.767976-0.415987-1.087966 0-2.687916 1.951939-1.535952 3.359895-2.527921 4.063873-4.47986 12.351614-6.687791 17.503453-8.607731 20.959345-6.463798 10.495672-6.815787 10.911659-8.031749 12.319615-8.543733 12.063623-4.383863 5.471829-5.311834 5.919815-12.191619 11.999625 1.087966 1.087966 1.663948 1.695947 6.07981 3.615887 25.375207 12.15962 11.071654 6.239805 10.527671 6.07981 10.463673 7.615762 9.311709 7.935752 4.543858 3.487891 3.391894 4.127871 3.455892 4.703853 2.911909 5.183838 1.535952 4.255867 1.91994 5.151839 0.767976 4.383863 0.927971 5.183838-0.927971 3.487891 0 3.455892-0.767976 3.711884-1.91994 3.295897-0.767976 2.623918-1.695947 3.167901-4.607856 6.271804-4.223868 5.023843-3.295897 3.775882-2.751914 2.751914-7.007781 5.151839-7.935752 4.415862-8.447736 4.255867-8.991719 4.063873-10.143683 3.935877-5.375832 1.695947-4.831849 1.375957-11.679635 2.719915-12.15962 2.591919-12.15962 2.623918-13.215587 2.111934-13.695572 0.575982-13.983563 1.695947-43.454642 0-15.711509-0.927971-14.623543-1.343958-15.711509-2.111934-15.615512-1.695947-16.479485-2.303928-15.935502-3.935877-15.551514-3.071904-15.455517-4.383863-15.839505-5.599825-15.519515-4.735852-8.159745-2.719915-7.295772-2.623918-4.607856-1.759945-4.543858-0.927971-12.927596 0-14.911534-1.087966-7.583763-0.767976-9.727696-1.087966-6.239805 5.599825-8.543733 5.343833-11.551639 5.663823-12.767601 7.007781-7.775757 3.775882-8.063748 3.039905-17.91944 7.295772-9.727696 2.431924-10.175682 2.783913-14.143558 2.687916-8.831724 0.767976-9.375707 0.767976-9.759695 1.087966-11.391644 0.447986-46.494547 0-26.271179-0.447986-25.471204-2.623918-12.927596-1.759945-12.447611-1.855942-12.15962-1.855942-12.15962-2.431924-11.263648-3.647886-11.263648-2.591919-10.143683-4.127871-9.5997-3.775882-8.927721-4.319865-7.775757-4.703853-7.775757-5.599825-2.623918-2.783913-3.455892-3.295897-2.623918-2.911909-2.399925-3.295897-2.175932-3.391894-1.695947-3.295897-2.431924-7.167776-0.895972-3.647886-1.087966-4.127871 0-3.775882 1.087966-4.255867 0-4.255867 0.895972-4.255867 0-8.511734 0.415987-4.575857 2.015937-5.183838 1.695947-5.151839 3.071904-6.239805 2.23993-2.431924 1.855942-2.719915 4.831849-5.919815 3.83988-3.071904 3.615887-2.111934 3.359895-2.719915 5.343833-1.695947 4.223868-2.527921 5.311834-2.783913 6.07981-1.791944 6.07981-1.855942 7.007781-1.503953 14.623543-2.015937 8.543733-0.607981 2.271929-0.767976 0.447986 0 1.087966-0.927971 0-0.991969-1.535952-2.143933-4.575857-2.143933-11.391644-9.855692-7.615762-6.07981-8.831724-7.775757-8.927721-8.63973-9.311709-11.135652-10.623668-12.447611-3.999875-6.687791-5.311834-7.007781-4.543858-8.063748-4.063873-8.799725-5.535827-8.351739-3.615887-9.5997-4.255867-9.535702-4.255867-10.687666-3.167901-10.143683-2.911909-12.607606-0.927971-0.447986-0.895972 0-0.447986-0.927971-1.087966 0-1.791944 0.927971-0.927971 0.447986-1.215962 2.111934-0.447986 2.591919-0.927971 2.303928-1.631949 3.775882-5.247836 9.311709-2.687916 5.599825-4.255867 4.831849-4.575857 5.919815-4.991844 6.527796-5.311834 5.791819-6.239805 5.599825-5.791819 5.311834-6.335802 4.127871-7.007781 4.415862-6.687791 2.591919-7.935752 1.983938-7.775757 0.735977-1.855942 0-1.759945-0.735977-1.375957-3.071904-2.303928-1.503953-3.007906-7.295772-1.855942-3.967876-2.015937-5.599825-1.663948-5.919815-0.895972-5.75982-2.463923-13.215587-0.927971-7.775757 0-25.535202 0.927971-19.007406 1.535952-9.759695 1.791944-9.983688 1.663948-10.815662 2.911909-10.047686 3.295897-11.583638 3.391894-11.231649 4.543858-11.583638 4.255867-11.071654 5.887816-11.263648 5.535827-12.15962 6.687791-11.423643 7.871754-12.319615 8.031749-11.071654 8.383738-12.319615 7.007781-8.543733 8.95972-9.887691 9.407706-9.887691 4.383863-4.703853 5.343833-5.311834 7.743758-6.71979 7.935752-6.815787 12.927596-11.551639 9.759695-7.135777z" p-id="2477"></path></svg>