
<?xml version="1.0" standalone="no"?><!DOCTYPE svg PUBLIC "-//W3C//DTD SVG 1.1//EN" "http://www.w3.org/Graphics/SVG/1.1/DTD/svg11.dtd"><svg t="1495591304596" class="icon" style="" viewBox="0 0 1024 1024" version="1.1" xmlns="http://www.w3.org/2000/svg" p-id="2686" xmlns:xlink="http://www.w3.org/1999/xlink" width="200" height="200"><defs><style type="text/css"></style></defs><path d="M926.829 532.286c0.335-6.856 0.51-13.753 0.51-20.692 0-229.387-185.954-415.342-415.342-415.342-79.914 0-154.525 22.602-217.853 61.726-15.051 8.086-25.284 23.972-25.284 42.251 0 26.475 21.462 47.937 47.939 47.937 10.238 0 19.719-3.22 27.506-8.688 48.746-30.115 106.182-47.509 167.692-47.509 176.525 0 319.627 143.102 319.627 319.627 0 6.953-0.248 13.848-0.687 20.692l-92.915 0L881.01 737.059 1024 532.286 926.829 532.286zM707.203 775.834c-10.239 0-19.719 3.221-27.507 8.69-48.748 30.116-106.184 47.511-167.694 47.511-176.525 0-319.626-143.105-319.626-319.63 0-6.953 0.249-13.848 0.686-20.691l92.915 0L142.989 286.941 0 491.714l97.172 0c-0.337 6.855-0.51 13.753-0.51 20.691 0 229.386 185.954 415.343 415.342 415.343 79.915 0 154.526-22.602 217.853-61.727 15.05-8.084 25.283-23.971 25.283-42.253C755.14 797.296 733.679 775.834 707.203 775.834z" p-id="2687"></path></svg>