
<?xml version="1.0" standalone="no"?><!DOCTYPE svg PUBLIC "-//W3C//DTD SVG 1.1//EN" "http://www.w3.org/Graphics/SVG/1.1/DTD/svg11.dtd"><svg t="1497153623794" class="icon" style="" viewBox="0 0 1024 1024" version="1.1" xmlns="http://www.w3.org/2000/svg" p-id="2705" xmlns:xlink="http://www.w3.org/1999/xlink" width="200" height="200"><defs><style type="text/css"></style></defs><path d="M859.428571 256q0-22.857143-16-38.857143t-38.857143-16-38.857143 16-16 38.857143 16 38.857143 38.857143 16 38.857143-16 16-38.857143zm128-164.571429q0 142.285714-43.142857 246t-144.857143 206q-46.285714 45.714286-111.428571 100.571429l-11.428571 216.571429q-1.142857 9.142857-9.142857 14.857143l-219.428571 128q-4 2.285714-9.142857 2.285714-6.857143 0-13.142857-5.142857l-36.571429-36.571429q-7.428571-8-4.571429-18.285714l48.571429-157.714286-160.571429-160.571429-157.714286 48.571429q-1.714286 0.571429-5.142857 0.571429-8 0-13.142857-5.142857l-36.571429-36.571429q-9.714286-10.857143-2.857143-22.285714l128-219.428571q5.714286-8 14.857143-9.142857l216.571429-11.428571q54.857143-65.142857 100.571429-111.428571 107.428571-106.857143 204.571429-147.428571t246.285714-40.571429q8 0 13.714286 5.428571t5.714286 12.857143z" p-id="2706"></path></svg>