
<?xml version="1.0" standalone="no"?><!DOCTYPE svg PUBLIC "-//W3C//DTD SVG 1.1//EN" "http://www.w3.org/Graphics/SVG/1.1/DTD/svg11.dtd"><svg t="1494655487882" class="icon" style="" viewBox="0 0 1024 1024" version="1.1" xmlns="http://www.w3.org/2000/svg" p-id="2366" xmlns:xlink="http://www.w3.org/1999/xlink" width="200" height="200"><defs><style type="text/css"></style></defs><path d="M329.142857 768q0 45.714286-32 77.714286t-77.714286 32-77.714285-32-32-77.714286 32-77.714286 77.714285-32 77.714286 32 32 77.714286z m292.571429 70.285714q1.142857 16-9.714286 27.428572-10.285714 12-26.857143 12H508q-14.285714 0-24.571429-9.428572t-11.428571-23.714285q-12.571429-130.857143-105.428571-223.714286T142.857143 515.428571q-14.285714-1.142857-23.714286-11.428571T109.714286 479.428571V402.285714q0-16.571429 12-26.857143 9.714286-9.714286 24.571428-9.714285h2.857143q91.428571 7.428571 174.857143 46T472 515.428571q65.142857 64.571429 103.714286 148t46 174.857143z m292.571428 1.142857q1.142857 15.428571-10.285714 26.857143-10.285714 11.428571-26.285714 11.428572h-81.714286q-14.857143 0-25.428571-10T759.428571 843.428571q-6.857143-122.857143-57.714285-233.428571t-132.285715-192-192-132.285714T144 227.428571q-14.285714-0.571429-24.285714-11.142857T109.714286 191.428571V109.714286q0-16 11.428571-26.285715 10.285714-10.285714 25.142857-10.285714h1.714286q149.714286 7.428571 286.571429 68.571429T677.714286 309.714286q106.857143 106.285714 168 243.142857t68.571428 286.571428z" fill="" p-id="2367"></path></svg>