
<?xml version="1.0" standalone="no"?><!DOCTYPE svg PUBLIC "-//W3C//DTD SVG 1.1//EN" "http://www.w3.org/Graphics/SVG/1.1/DTD/svg11.dtd"><svg t="1497168721996" class="icon" style="" viewBox="0 0 1024 1024" version="1.1" xmlns="http://www.w3.org/2000/svg" p-id="17769" xmlns:xlink="http://www.w3.org/1999/xlink" width="200" height="200"><defs><style type="text/css"></style></defs><path d="M1017.98912 626.88256l0 252.99968c0 34.78528-28.45696 63.25248-63.24224 63.25248L69.25824 943.13472c-34.78528 0-63.24736-28.4672-63.24736-63.25248l0-252.99968 727.35744 0 0-63.24224L6.01088 563.64032 6.01088 120.88832c0-34.78528 28.46208-63.24736 63.24736-63.24736l885.48864 0c34.78528 0 63.24224 28.46208 63.24224 63.24736l0 442.752-221.3632 0 0 63.24224L1017.98912 626.88256 1017.98912 626.88256zM891.49952 184.1408c0-18.97472-12.65664-31.62624-31.63136-31.62624L164.14208 152.51456c-18.97984 0-31.62624 12.65152-31.62624 31.62624l0 63.24736c0 18.97472 12.65152 31.62624 31.62624 31.62624l695.7312 0c18.97472 0 31.63136-12.65152 31.63136-31.62624L891.50464 184.1408 891.49952 184.1408zM859.86816 468.7616c18.97472 0 31.62112-12.65152 31.62112-31.62112L891.48928 373.888c0-18.97472-12.6464-31.62112-31.62112-31.62112L164.14208 342.26688c-18.97984 0-31.62624 12.6464-31.62624 31.62112l0 63.25248c0 18.9696 12.65152 31.62112 31.62624 31.62112L859.86816 468.7616 859.86816 468.7616zM259.00544 753.3824c0-18.97472-12.65152-31.62112-31.616-31.62112L164.13696 721.76128c-18.97984 0-31.62112 12.6464-31.62112 31.62112l0 63.25248c0 18.97472 12.65152 31.62112 31.62112 31.62112l63.25248 0c18.97472 0 31.616-12.6464 31.616-31.62112L259.00544 753.3824 259.00544 753.3824zM353.87904 753.3824l0 63.25248c0 18.97472 12.65152 31.62112 31.62112 31.62112l474.368 0c18.97472 0 31.62112-12.6464 31.62112-31.62112l0-63.25248c0-18.97472-12.6464-31.62112-31.62112-31.62112l-474.368 0C366.53056 721.76128 353.87904 734.40256 353.87904 753.3824L353.87904 753.3824zM259.00544 437.13536 195.75808 437.13536 195.75808 373.888l63.24736 0L259.00544 437.13536 259.00544 437.13536zM195.75808 184.1408l63.24736 0 0 63.24736L195.75808 247.38816 195.75808 184.1408 195.75808 184.1408zM195.75808 184.1408" p-id="17770"></path></svg>