
<?xml version="1.0" standalone="no"?><!DOCTYPE svg PUBLIC "-//W3C//DTD SVG 1.1//EN" "http://www.w3.org/Graphics/SVG/1.1/DTD/svg11.dtd"><svg t="1497166989063" class="icon" style="" viewBox="0 0 1024 1024" version="1.1" xmlns="http://www.w3.org/2000/svg" p-id="27429" xmlns:xlink="http://www.w3.org/1999/xlink" width="200" height="200"><defs><style type="text/css"></style></defs><path d="M987.428571 292.571429h-73.142857c-21.942857 0-36.571429 14.628571-36.571428 36.571428s14.628571 36.571429 36.571428 36.571429h36.571429v292.571428h-36.571429c-21.942857 0-36.571429 14.628571-36.571428 36.571429s14.628571 36.571429 36.571428 36.571428h73.142857c21.942857 0 36.571429-14.628571 36.571429-36.571428V329.142857c0-21.942857-14.628571-36.571429-36.571429-36.571428zM109.714286 365.714286c21.942857 0 36.571429-14.628571 36.571428-36.571429s-14.628571-36.571429-36.571428-36.571428H36.571429c-21.942857 0-36.571429 14.628571-36.571429 36.571428v365.714286c0 21.942857 14.628571 36.571429 36.571429 36.571428h73.142857c21.942857 0 36.571429-14.628571 36.571428-36.571428s-14.628571-36.571429-36.571428-36.571429H73.142857v-292.571428h36.571429z m438.857143 146.285714c62.171429 0 109.714286-47.542857 109.714285-109.714286s-47.542857-109.714286-109.714285-109.714285-109.714286 47.542857-109.714286 109.714285 47.542857 109.714286 109.714286 109.714286z m0-146.285714c21.942857 0 36.571429 14.628571 36.571428 36.571428s-14.628571 36.571429-36.571428 36.571429-36.571429-14.628571-36.571429-36.571429 14.628571-36.571429 36.571429-36.571428z m256-219.428572H219.428571c-21.942857 0-36.571429 14.628571-36.571428 36.571429v658.285714c0 21.942857 14.628571 36.571429 36.571428 36.571429h585.142858c21.942857 0 36.571429-14.628571 36.571428-36.571429V182.857143c0-21.942857-14.628571-36.571429-36.571428-36.571429z m-36.571429 658.285715H256v-98.742858l109.714286-109.714285 120.685714 124.342857c7.314286 7.314286 14.628571 10.971429 25.6 10.971428 7.314286 0 18.285714-3.657143 25.6-10.971428l84.114286-87.771429 146.285714 146.285715v25.6z m0-120.685715l-124.342857-124.342857c-7.314286-7.314286-14.628571-10.971429-21.942857-10.971428-7.314286 0-18.285714 3.657143-25.6 10.971428L512 647.314286l-120.685714-124.342857c-10.971429-7.314286-18.285714-10.971429-25.6-10.971429-7.314286 0-18.285714 3.657143-25.6 10.971429L256 607.085714V219.428571h512v464.457143z"  p-id="27430"></path></svg>