
<?xml version="1.0" standalone="no"?><!DOCTYPE svg PUBLIC "-//W3C//DTD SVG 1.1//EN" "http://www.w3.org/Graphics/SVG/1.1/DTD/svg11.dtd"><svg t="1497167587472" class="icon" style="" viewBox="0 0 1024 1024" version="1.1" xmlns="http://www.w3.org/2000/svg" p-id="2117" xmlns:xlink="http://www.w3.org/1999/xlink" width="200" height="200"><defs><style type="text/css"></style></defs><path d="M712.576 818.272l101.152 0-41.152-124.576-6.848-26.848q-1.152-9.152-1.152-11.424l-2.272 0-1.728 11.424q0 0.576-2.016 10.272t-4.288 16.576zM452.576 822.848q0 6.848-5.728 13.728l-182.272 182.272q-5.728 5.152-13.152 5.152-6.848 0-13.152-5.152l-182.848-182.848q-8.576-9.152-4-20 4.576-11.424 17.152-11.424l109.728 0 0-786.272q0-8 5.152-13.152t13.152-5.152l109.728 0q8 0 13.152 5.152t5.152 13.152l0 786.272 109.728 0q8 0 13.152 5.152t5.152 13.152zM981.152 963.424l0 60.576-164.576 0 0-60.576 42.848 0-26.848-82.272-138.848 0-26.848 82.272 42.848 0 0 60.576-164 0 0-60.576 40 0 131.424-378.272 92.576 0 131.424 378.272 40 0zM930.272 305.728l0 133.152-333.728 0 0-51.424 210.848-302.272q6.848-10.272 12-15.424l6.272-5.152 0-1.728q-1.152 0-3.712 0.288t-4.288 0.288q-6.848 1.728-17.152 1.728l-132.576 0 0 65.728-68.576 0 0-130.848 324 0 0 50.848-210.848 302.848q-3.424 4.576-12 14.848l-6.272 5.728 0 1.728 8-1.728q5.152-0.576 17.152-0.576l141.728 0 0-68 69.152 0z" p-id="2118"></path></svg>