
<?xml version="1.0" standalone="no"?><!DOCTYPE svg PUBLIC "-//W3C//DTD SVG 1.1//EN" "http://www.w3.org/Graphics/SVG/1.1/DTD/svg11.dtd"><svg t="1500623981808" class="icon" style="" viewBox="0 0 1024 1024" version="1.1" xmlns="http://www.w3.org/2000/svg" p-id="2328" xmlns:xlink="http://www.w3.org/1999/xlink" width="200" height="200"><defs><style type="text/css"></style></defs><path d="M262.4 294.4c-25.6 19.2-38.4 51.2-32 89.6 0 32 12.8 64 38.4 89.6 25.6 25.6 57.6 38.4 89.6 38.4 32 0 64-12.8 89.6-38.4 51.2-51.2 44.8-128 0-179.2-57.6-51.2-134.4-51.2-185.6 0zM409.6 384c0 12.8-6.4 32-19.2 38.4-19.2 25.6-51.2 25.6-76.8 0-25.6-25.6-25.6-57.6 0-83.2 12.8-12.8 25.6-19.2 38.4-19.2 12.8 0 32 6.4 44.8 19.2 6.4 12.8 12.8 32 12.8 44.8z" p-id="2329"></path><path d="M921.6 480L595.2 147.2l-12.8-12.8c-19.2-19.2-32-32-64-38.4H121.6c-12.8 0-32 6.4-38.4 19.2-12.8 6.4-19.2 25.6-19.2 38.4l6.4 396.8c0 25.6 6.4 32 25.6 44.8L448 953.6c25.6 25.6 57.6 38.4 89.6 38.4 32 0 64-12.8 89.6-38.4l300.8-300.8c19.2-19.2 32-51.2 32-83.2 0-38.4-12.8-70.4-38.4-89.6z m-38.4 128L576 908.8c-12.8 12.8-25.6 19.2-38.4 19.2-12.8 0-32-6.4-44.8-19.2L153.6 563.2c-19.2-12.8-19.2-25.6-19.2-38.4L128 185.6c0-6.4 0-12.8 6.4-19.2 6.4-6.4 12.8-6.4 19.2-6.4l339.2 6.4c12.8 0 25.6 0 44.8 12.8l345.6 345.6c19.2 25.6 19.2 57.6 0 83.2z" p-id="2330"></path></svg>