
<?xml version="1.0" standalone="no"?><!DOCTYPE svg PUBLIC "-//W3C//DTD SVG 1.1//EN" "http://www.w3.org/Graphics/SVG/1.1/DTD/svg11.dtd"><svg t="1497153895572" class="icon" style="" viewBox="0 0 1024 1024" version="1.1" xmlns="http://www.w3.org/2000/svg" p-id="6383" xmlns:xlink="http://www.w3.org/1999/xlink" width="200" height="200"><defs><style type="text/css"></style></defs><path d="M512 620.8l-19.2-6.4L32 345.6V320c0-12.8 6.4-25.6 19.2-32L512 25.6l19.2 6.4 460.8 262.4V320c0 12.8-6.4 25.6-19.2 32L512 620.8zM121.6 326.4L512 550.4l390.4-224L512 102.4 121.6 326.4z m819.2 19.2zM83.2 300.8z"  p-id="6384"></path><path d="M512 812.8L44.8 544c-19.2-6.4-19.2-25.6-12.8-44.8 6.4-12.8 25.6-19.2 44.8-12.8l435.2 256 435.2-249.6c12.8-6.4 32-6.4 44.8 12.8 6.4 12.8 6.4 32-12.8 44.8L512 812.8z"  p-id="6385"></path><path d="M512 1004.8L44.8 736c-12.8-6.4-19.2-25.6-12.8-44.8 6.4-12.8 25.6-19.2 44.8-12.8l435.2 256 435.2-249.6c12.8-6.4 32-6.4 44.8 12.8 6.4 12.8 6.4 32-12.8 44.8L512 1004.8z" p-id="6386"></path></svg>