
<?xml version="1.0" standalone="no"?><!DOCTYPE svg PUBLIC "-//W3C//DTD SVG 1.1//EN" "http://www.w3.org/Graphics/SVG/1.1/DTD/svg11.dtd"><svg t="1497165536121" class="icon" style="" viewBox="0 0 1024 1024" version="1.1" xmlns="http://www.w3.org/2000/svg" p-id="2041" xmlns:xlink="http://www.w3.org/1999/xlink" width="200" height="200"><defs><style type="text/css"></style></defs><path d="M642.160874 894.856008l0 11.1857q0 5.084409 0.508441 11.1857t0.508441 12.202582q-1.016882 19.320755-10.677259 42.200596t-37.116187 33.048659q-11.1857 4.067527-28.981132 11.694141t-53.386296 7.626614q-30.506455 0-50.33565-7.118173t-31.014896-9.151936q-14.236346-3.050645-22.879841-12.711023t-13.219464-21.862959-5.59285-24.913605-1.016882-22.879841l0-31.523337zM862.82423 229.815293q26.438928 62.029791 30.506455 116.94141t-6.101291 101.179742-29.489573 82.875869-40.166832 64.063555-39.14995 45.251241-25.422046 23.896723q-10.168818 9.151936-18.812314 13.727905t-15.253227 7.626614-12.711023 7.118173-12.202582 13.219464q-13.219464 19.320755-20.337637 37.624628t-12.202582 35.590864q-5.084409 14.236346-11.1857 23.388282t-13.219464 16.270109q-8.135055 8.135055-16.270109 13.219464l-223.714002 0q-8.135055-5.084409-15.253227-13.219464-7.118173-7.118173-14.236346-18.303873t-12.202582-28.472691q-10.168818-29.489573-24.913605-47.285005t-38.133069-35.082423q-16.270109-12.202582-37.116187-32.540218t-41.183714-47.793446-38.641509-61.521351-29.489573-74.740814-13.219464-86.943396 9.151936-97.112214q17.286991-81.350546 59.996028-136.770606t95.586892-88.97716 109.314796-48.301887 102.196624-14.744786q47.793446 0 99.654419 13.219464t100.16286 41.183714 88.468719 71.181728 65.588878 104.230387zM760.119166 437.259186q43.725919-177.95432-113.890765-271.507448-26.438928-16.270109-61.521351-25.422046t-71.690169-9.151936-72.707051 9.151936-64.571996 28.472691q-69.147964 47.793446-93.553128 103.721946t-22.3714 117.958292q1.016882 34.573982 11.694141 62.029791t25.422046 49.82721 30.506455 39.14995 27.96425 29.998014q25.422046 26.438928 44.7428 46.268123t30.506455 50.33565q11.1857 29.489573 35.082423 36.099305t44.234359 6.609732q26.438928 0 50.844091-11.694141t34.573982-36.099305q5.084409-14.236346 20.846077-34.573982t47.285005-56.945382q16.270109-19.320755 31.014896-33.5571t27.455809-28.472691 22.3714-31.014896 15.761668-41.183714z" p-id="2042"></path></svg>