
<?xml version="1.0" standalone="no"?><!DOCTYPE svg PUBLIC "-//W3C//DTD SVG 1.1//EN" "http://www.w3.org/Graphics/SVG/1.1/DTD/svg11.dtd"><svg t="1497170438585" class="icon" style="" viewBox="0 0 1093 1024" version="1.1" xmlns="http://www.w3.org/2000/svg" p-id="29160" xmlns:xlink="http://www.w3.org/1999/xlink" width="213.4765625" height="200"><defs><style type="text/css"></style></defs><path d="M955.733333 1024 136.533333 1024C61.1328 1024 0 962.8672 0 887.466667L0 512 341.333333 512 414.4128 512C411.4432 522.888533 409.6 534.254933 409.6 546.133333 409.6 621.533867 470.7328 682.666667 546.133333 682.666667 621.533867 682.666667 682.666667 621.533867 682.666667 546.133333 682.666667 534.254933 680.823467 522.888533 677.853867 512L716.8 512 1092.266667 512 1092.266667 887.466667C1092.266667 962.8672 1031.133867 1024 955.733333 1024ZM614.4 546.133333C614.4 583.850667 583.816533 614.4 546.133333 614.4 508.416 614.4 477.866667 583.850667 477.866667 546.133333 477.866667 533.640533 481.450667 522.069333 487.3216 512L604.910933 512C610.781867 522.069333 614.4 533.640533 614.4 546.133333ZM341.333333 443.733333 0 443.733333 0 273.066667C0 197.666133 61.1328 136.533333 136.533333 136.533333L341.333333 136.533333 341.333333 68.266667C341.333333 30.549333 371.882667 0 409.6 0L682.666667 0C720.384 0 750.933333 30.549333 750.933333 68.266667L750.933333 136.533333 955.733333 136.533333C1031.133867 136.533333 1092.266667 197.666133 1092.266667 273.066667L1092.266667 443.733333 716.8 443.733333 341.333333 443.733333ZM682.666667 102.4C682.666667 83.5584 667.374933 68.266667 648.533333 68.266667L443.733333 68.266667C424.891733 68.266667 409.6 83.5584 409.6 102.4L409.6 136.533333C429.8752 136.533333 662.391467 136.533333 682.666667 136.533333L682.666667 102.4Z" p-id="29161"></path></svg>