
<?xml version="1.0" standalone="no"?><!DOCTYPE svg PUBLIC "-//W3C//DTD SVG 1.1//EN" "http://www.w3.org/Graphics/SVG/1.1/DTD/svg11.dtd"><svg t="1497167499373" class="icon" style="" viewBox="0 0 1024 1024" version="1.1" xmlns="http://www.w3.org/2000/svg" p-id="1999" xmlns:xlink="http://www.w3.org/1999/xlink" width="200" height="200"><defs><style type="text/css"></style></defs><path d="M694.848 0q105.728 0 180.864 53.44t75.136 129.44l0 512q0 74.272-71.712 126.848t-174.56 55.424l121.728 115.424q9.152 8.576 4.576 20t-17.152 11.424l-603.424 0q-12.576 0-17.152-11.424t4.576-20l121.728-115.424q-102.848-2.848-174.56-55.424t-71.712-126.848l0-512q0-76 75.136-129.44t180.864-53.44l365.728 0zM511.968 768q45.728 0 77.728-32t32-77.728-32-77.728-77.728-32-77.728 32-32 77.728 32 77.728 77.728 32zM841.12 438.848l0-292.576-658.272 0 0 292.576 658.272 0z" p-id="2000"></path></svg>