
<?xml version="1.0" standalone="no"?><!DOCTYPE svg PUBLIC "-//W3C//DTD SVG 1.1//EN" "http://www.w3.org/Graphics/SVG/1.1/DTD/svg11.dtd"><svg t="1497165143222" class="icon" style="" viewBox="0 0 1024 1024" version="1.1" xmlns="http://www.w3.org/2000/svg" p-id="11063" xmlns:xlink="http://www.w3.org/1999/xlink" width="200" height="200"><defs><style type="text/css"></style></defs><path d="M853.436416 433.415168 377.30816 433.415168 843.941888 285.934592c36.307968-11.454464 56.511488-50.328576 45.019136-86.636544L861.688832 112.970752c-11.475968-36.292608-50.327552-56.487936-86.63552-45.003776L144.241664 267.336704c-36.308992 11.461632-56.496128 50.351104-45.026304 86.629376l27.271168 86.31808c2.152448 6.796288 5.257216 13.022208 9.124864 18.582528-11.757568 13.273088-18.960384 30.665728-18.960384 49.752064l0 376.121344c0 41.454592 33.741824 75.204608 75.211776 75.204608l661.572608 0c41.469952 0 75.218944-33.750016 75.218944-75.204608L928.654336 508.618752C928.65536 467.1488 894.906368 433.415168 853.436416 433.415168zM802.353152 124.019712c2.189312 1.449984 4.023296 3.482624 4.866048 6.166528l27.300864 86.326272c1.982464 6.255616-1.522688 12.985344-7.793664 14.974976l-42.533888 13.428736L802.353152 124.019712zM639.72864 170.635264l72.424448-22.879232-18.929664 125.917184-72.424448 22.90176L639.72864 170.635264zM476.34944 222.272512l72.438784-22.8864-18.945024 125.925376-72.454144 22.90176L476.34944 222.272512zM312.967168 273.932288l72.416256-22.908928-18.945024 125.917184-72.409088 22.908928L312.967168 273.932288zM161.456128 321.805312l60.548096-19.144704-18.930688 125.939712-7.150592 2.255872c-6.263808 1.98144-12.977152-1.51552-14.959616-7.786496l-27.286528-86.303744C151.688192 330.486784 155.185152 323.787776 161.456128 321.805312zM859.189248 884.740096c0 3.165184-2.573312 5.738496-5.752832 5.738496L191.863808 890.478592c-3.172352 0-5.753856-2.574336-5.753856-5.738496L186.109952 508.618752c0-3.165184 2.581504-5.738496 5.753856-5.738496l661.572608 0c3.17952 0 5.752832 2.573312 5.752832 5.738496L859.189248 884.740096z" p-id="11064"></path><path d="M489.837568 568.124416c-11.314176-9.739264-28.351488-12.637184-43.096064-7.395328-14.789632 5.265408-24.41728 17.666048-24.41728 31.442944l0 209.051648c0 13.740032 9.627648 26.133504 24.41728 31.383552 4.895744 1.760256 10.042368 2.603008 15.1296 2.603008 10.278912 0 20.395008-3.46112 27.967488-9.938944L611.377152 720.724992c15.469568-13.26592 15.469568-34.798592 0-48.095232L489.837568 568.124416z" p-id="11065"></path></svg>