
<?xml version="1.0" standalone="no"?><!DOCTYPE svg PUBLIC "-//W3C//DTD SVG 1.1//EN" "http://www.w3.org/Graphics/SVG/1.1/DTD/svg11.dtd"><svg t="1497164441561" class="icon" style="" viewBox="0 0 1025 1024" version="1.1" xmlns="http://www.w3.org/2000/svg" p-id="3107" xmlns:xlink="http://www.w3.org/1999/xlink" width="200.1953125" height="200"><defs><style type="text/css"></style></defs><path d="M984.006182 202.345904l-19.55426 19.543015-0.181967-0.180944L848.191583 337.786347l-0.262727-0.25046c-20.971146 20.926166-49.911001 33.871356-81.876819 33.871356-64.047153 0-115.963877-51.940236-115.963877-115.988411 0-31.967862 12.944168-60.894427 33.857044-81.867618l-32.850094-32.850094c-29.404994 29.358992-47.666064 69.851685-47.666064 114.717712 0 89.824059 72.809154 162.646503 162.624013 162.646503 44.878294 0 85.368943-18.275382 114.741224-47.680376l0.224903 0.25046 86.335002-86.355448c17.45551 64.182094 9.181138 125.759408-29.393749 165.230839L813.526934 576.880315c-16.436292 16.799203-40.490649 26.842127-64.205607 26.842127-0.951747-0.020446-79.543965-5.395618-158.010442-54.614533l-0.204457 0.452872c-3.582085-2.265383-7.59353-3.943974-12.163142-3.943974-7.867502 0-14.486795 4.171943-18.681229 10.17991l-0.826006-0.476385L204.963974 947.922602c-16.810448 16.799203-40.026531 27.18357-65.667474 27.18357-51.28393 0-92.863311-41.555869-92.863311-92.863311 0-25.641965 10.395612-48.857026 27.194815-65.656229l391.253876-353.06439-0.668574-0.703332c6.042724-4.195456 10.258626-10.860752 10.258626-18.772212 0-5.032707-1.938252-9.43262-4.648328-13.217118l0.102228-0.136986c-67.197834-89.280204-69.568512-155.663277-11.675512-218.441775l124.013346-126.892099c31.445474-32.170274 72.537227-38.928598 101.499572-38.928598l0.069515 0c17.557738 0 35.626619 2.609893 53.777282 7.278666l-86.753116 86.742893 32.826581 32.826581L799.763916 57.200913l-0.180944-0.180944 20.392533-20.381288C774.735322 12.720287 727.714319 0 683.833775 0l-0.069515 0c-51.713289 0-98.993952 17.095665-133.637133 52.553607L425.671132 179.900623c-81.854328 88.328457-60.203363 178.765887-4.714777 260.609992L40.809601 783.758006c-25.209538 25.209538-40.808579 60.033664-40.808579 98.485877 0 76.948385 62.368562 139.294456 139.294456 139.294456 38.472659 0 73.284517-15.575528 98.497122-40.785067l345.955423-382.379423c78.717959 44.344662 153.71378 51.78076 165.391337 51.78076 33.960295 0 70.12259-13.465533 96.512867-40.467136l124.43146-127.370528C1034.948668 415.934893 1036.863407 304.209409 984.006182 202.345904zM122.882699 865.830081c-4.206701 4.192389-6.802282 10.020434-6.802282 16.413802 0 12.831716 10.395612 23.216083 23.216083 23.216083 12.819449 0 23.216083-10.384367 23.216083-23.216083 0-12.810248-10.396634-23.216083-23.216083-23.216083C132.890865 859.027799 127.086333 861.634625 122.882699 865.830081z" p-id="3108"></path></svg>