
<?xml version="1.0" standalone="no"?><!DOCTYPE svg PUBLIC "-//W3C//DTD SVG 1.1//EN" "http://www.w3.org/Graphics/SVG/1.1/DTD/svg11.dtd"><svg t="1497166486989" class="icon" style="" viewBox="0 0 1024 1024" version="1.1" xmlns="http://www.w3.org/2000/svg" p-id="17692" xmlns:xlink="http://www.w3.org/1999/xlink" width="200" height="200"><defs><style type="text/css"></style></defs><path d="M512 455.886c-30.863 0-56.114 25.251-56.114 56.114 0 30.863 25.251 56.114 56.114 56.114 31.118 0 56.114-25.251 56.114-56.114 0-30.863-24.996-56.114-56.114-56.114z m0-454.011C230.156 1.875 1.875 230.155 1.875 512c0 281.59 228.28 510.125 510.125 510.125 281.844 0 510.125-228.536 510.125-510.125C1022.125 230.156 793.843 1.875 512 1.875z m111.717 621.842L205.924 818.074l194.358-417.792 417.792-194.358-194.357 417.793z" fill="" p-id="17693"></path></svg>