
<?xml version="1.0" standalone="no"?><!DOCTYPE svg PUBLIC "-//W3C//DTD SVG 1.1//EN" "http://www.w3.org/Graphics/SVG/1.1/DTD/svg11.dtd"><svg t="1497168441146" class="icon" style="" viewBox="0 0 1157 1024" version="1.1" xmlns="http://www.w3.org/2000/svg" p-id="16147" xmlns:xlink="http://www.w3.org/1999/xlink" width="225.9765625" height="200"><defs><style type="text/css"></style></defs><path d="M475.536696 26.668522c56.05287 0 65.491478 34.593391 101.509565 101.509565l35.127652 50.754783h421.62087a101.509565 101.509565 0 0 1 101.509565 101.509565v609.012869a101.509565 101.509565 0 0 1-101.509565 101.509566H120.253217a101.509565 101.509565 0 0 1-101.509565-101.509566V128.178087a101.509565 101.509565 0 0 1 101.509565-101.509565h355.283479zM290.726957 678.333217l186.145391-222.608695V395.442087H203.731478v64.155826H375.318261l-186.189913 222.608696v60.282434h292.641391v-64.155826H290.726957z m307.378086 64.155826V395.442087H521.794783v347.046956h76.31026z m216.776348-124.43826c21.726609 0 40.20313-3.161043 55.429566-9.483131a103.735652 103.735652 0 0 0 37.175652-25.021217c9.572174-10.373565 16.517565-22.26087 20.925217-35.706435a132.407652 132.407652 0 0 0 0-82.409739 96.701217 96.701217 0 0 0-20.925217-35.483826 103.735652 103.735652 0 0 0-37.175652-25.021218c-15.226435-6.322087-33.702957-9.48313-55.429566-9.48313h-156.493913v347.046956h76.310261v-124.43826h80.183652z m-20.880695-163.30574c8.726261 0 17.185391 0.667826 25.288347 1.958957 8.058435 1.29113 15.226435 3.784348 21.370435 7.524174a41.316174 41.316174 0 0 1 14.825739 15.805217c3.739826 6.811826 5.609739 15.716174 5.60974 26.713044 0 11.041391-1.869913 19.945739-5.60974 26.757565a41.182609 41.182609 0 0 1-14.825739 15.760696 58.63513 58.63513 0 0 1-21.370435 7.568695 160.857043 160.857043 0 0 1-25.288347 1.914435h-59.302957v-104.002783h59.302957z" p-id="16148"></path></svg>